<svg id="레이어_1" data-name="레이어 1" xmlns="http://www.w3.org/2000/svg" viewBox="0 0 1024 1024"><defs><style>.cls-1{fill:#f5f5f5;}</style></defs><path class="cls-1" d="M512,64.33A447.79,447.79,0,0,1,686.25,924.49a447.79,447.79,0,0,1-348.5-825A445,445,0,0,1,512,64.33m0-20C253.71,44.33,44.33,253.71,44.33,512S253.71,979.67,512,979.67,979.67,770.29,979.67,512,770.29,44.33,512,44.33Z"/><path class="cls-1" d="M512,782.36c-34.58,0-65.42-12.81-81-31.14l-3.44.62c-5.18.95-11.74,2.14-18.66,2.74,16.85,28.06,56.66,47.78,103.08,47.78s86.31-19.76,103.13-47.87c-6.55-.62-12.73-1.75-17.66-2.65-1.37-.25-3-.55-4.36-.77C577.59,769.48,546.68,782.36,512,782.36Z"/><path class="cls-1" d="M530.4,432.06H301a9.54,9.54,0,0,0-9.54,9.53v56A101.88,101.88,0,0,0,484,543.9a40,40,0,0,0,28.14,11.35,39.49,39.49,0,0,0,22.36-6.72,101.87,101.87,0,0,0,190.07-51v-56a9.54,9.54,0,0,0-9.54-9.53H530.4Zm-56.65,65.5a80.55,80.55,0,0,1-84.3,80.37c-43.35-2-76.63-39.53-76.63-82.93V469a15.5,15.5,0,0,1,15.5-15.5H458.25a15.5,15.5,0,0,1,15.5,15.5Zm38.41,43a26.42,26.42,0,0,1-21.88-11.83,101.73,101.73,0,0,0,4.87-31.18V466h25.72v31.6A101.62,101.62,0,0,0,528,535.15,25.47,25.47,0,0,1,512.16,540.57ZM701.32,469v28.6A80.55,80.55,0,0,1,617,577.93c-31.28-1.46-57.31-21.4-69.38-48.69-.07-.17-.14-.34-.22-.51a84.55,84.55,0,0,1-7-33.73V469a15.5,15.5,0,0,1,15.5-15.5H685.82A15.5,15.5,0,0,1,701.32,469Z"/><path class="cls-1" d="M379.09,573.23c-44.37-30,14.19-113.13,14.19-113.13H339.87C304.75,552.93,379.09,573.23,379.09,573.23Z"/><path class="cls-1" d="M609.49,573.23c-44.37-30,14.19-113.13,14.19-113.13H570.27C535.15,552.93,609.49,573.23,609.49,573.23Z"/><path class="cls-1" d="M455.36,166.08c-.94,0-1.88-.07-2.82-.07a56.47,56.47,0,0,0-39.18,15.58,54.77,54.77,0,0,0-17.08,38.87c-.31,16.36,7.12,31.12,21.41,43.33l-3.58.75c-12.16,2.53-23.65,4.93-30.92,13-3.95,4.38-6.78,10.28-10.05,17.12-1.27,2.64-3.2,6.67-4.57,9l-2.34,1C350.56,311.07,337,317.17,330,326.57a32.14,32.14,0,0,0-6.15,14.58c-15,7.53-24.37,18.6-26.64,31.81-2.39,14-6.47,22.25-13.64,27.74a81.32,81.32,0,0,1-7.17,4.89C272,408.3,266.11,412,263.33,420c-2.42,7-1,13.69.18,19.61.94,4.53-.36,7.88-3.14,14.43a93.07,93.07,0,0,0-3.83,10.18c-2.32,7.86-1.12,14.77-.25,19.82.16.94.36,2.11.47,3-.59.54-1.18,1.06-1.76,1.58-10.9,9.75-24.47,21.89-21.07,46.07a1.09,1.09,0,0,0,0,.19,27.26,27.26,0,0,1-2.88,4.53c-4.12,5.81-11.81,16.6-7.71,31.75a43.46,43.46,0,0,1,.84,8.83c.35,10.08.93,26.59,17.34,37.93,0,.76-.05,1.57-.08,2.27C241,630.53,240.09,652,267,664.47c8.33,3.88,10.6,8.06,14,14.38,4.39,8.07,11.73,21.57,32.11,23.6,3.19.32,4.72,1.51,9.86,6.45,6.12,5.88,14.82,14.25,30.14,17.47,0,0,11.27.49,17.81,2.34,4.67,1.38,12,3.43,20.44,5.34,14.31,3.27,35.77-3.26,42.09-3.26s11.78,5.3,23.14,3.67,22.73-1.58,32.83,1.27,23.11,0,23.11,0,13,2.86,23.12,0,21.46-2.9,32.82-1.27,16.84-3.67,23.15-3.67c5.68,0,23.65,5.29,37.62,4a43.2,43.2,0,0,0,12.08,11.4c-4.63,7.41-8.67,14.64-7,24.27,1.87,10.83,9.79,19.91,20.59,22.38,9.36,2.14,13.36-12.27,4-14.42a13,13,0,0,1-10-14.56c.75-4.83,4.2-9.16,7.14-13.32l25.76-1.71a7.49,7.49,0,0,0,7-8,7.4,7.4,0,0,0-8-7l-27.44,1.83c-11-5.53-18.66-15.16-15.25-28.14a24.56,24.56,0,0,1,3.08-7.32c.24-.09,2-2,2.24-2.22,1.37-1.3,3.59-3.71,5.46-4.69l31.87,2.29a5.06,5.06,0,0,0,.55,0,7.47,7.47,0,0,0,.53-14.93l-29.36-2.11c-6.77-10.29-2.35-24.09,6.12-32.09,10.31-9.73,25-12.89,38.71-13.89,15.61-1.14,31.37-.86,47-1.13,5.65-.09,12.52.71,15.47-5.19s2.13-14.71,2.76-21.09c2.79-28.05,7.25-59.1,27.39-80.54,8.78-9.36,20.52-16.24,33.42-17.75,11.34-1.32,29.92,1.63,31.7,15.58,1,8-1.63,17.08-3.48,24.84-1.94,8.18-4.27,16.26-6.37,24.4-4.09,15.81-7.21,32-5.53,48.37,1,9.48,15.94,9.58,15,0-2.45-23.76,6-46,11.36-68.79,4.63-19.51,8.53-42-12.09-53.44-17.25-9.59-38.88-7.2-55.83,1.78A68.17,68.17,0,0,0,786,507.81c-4.35-8-10.92-13.94-16.74-19.15-.58-.51-1.16-1-1.76-1.58.11-.89.31-2.06.48-3,.87-5.05,2.06-12-.25-19.82a93,93,0,0,0-3.84-10.18c-2.78-6.55-4.07-9.9-3.14-14.43,1.22-5.92,2.6-12.62.19-19.61-2.78-8-8.72-11.74-13.06-14.45a82.84,82.84,0,0,1-7.17-4.89c-7.16-5.49-11.24-13.78-13.64-27.74-2.27-13.21-11.61-24.28-26.63-31.81a32.25,32.25,0,0,0-6.15-14.58c-7-9.4-20.58-15.5-36.25-21.95l-2.34-1c-1.38-2.35-3.31-6.39-4.57-9-3.28-6.84-6.11-12.74-10.06-17.12-6.17-6.85-15.41-9.6-25.51-11.83h0c20-11.95,33.12-29.13,35.27-47.37,1.26-10.73-.26-31.25-24.67-48A46.71,46.71,0,0,0,609,162.91a63.67,63.67,0,0,0-30.51-50.43,75.93,75.93,0,0,0-39.9-11.37c-34.8,0-67.93,23.56-80.58,57.3C457,161,456.13,163.55,455.36,166.08ZM627.48,289.81c5.14,5.71,11.76,26.38,17.63,29.23s28.65,10.69,34.53,18.53,0,15,5.88,17.11,21.3,8.56,23.5,21.39,6.61,28.51,20.57,39.2,16.16,6.42,13.22,20.67,4.41,23.53,7.35,33.51-6.61,20.67,4.41,30.65c8.58,7.77,15.82,13.38,17.57,22.89a107.14,107.14,0,0,0-11.61,21,157.21,157.21,0,0,0-10,37c-1,6.19-1.73,12.42-2.39,18.64-.57,5.35-.42,11.62-1.36,17.25-6.59.76-14.37-.14-20.51,0-7.83.14-15.67.17-23.49.51-14.89.67-30,2.81-43.22,10.16-19.77,11-31.3,34.74-21.92,55a45,45,0,0,0-13.36,19,37.78,37.78,0,0,0-1.62,16.85c-11-2.06-28.21-6.17-33.62-2.55-7.15,4.78-13,2.77-18.93,3.57s-29.46-6.51-35.35,0c-3.27,3.62-9.78,2.65-14.92,1.07a25.08,25.08,0,0,0-14.71,0C500,722,493.52,723,490.25,719.38c-5.89-6.51-29.46.81-35.35,0s-11.79,1.21-18.94-3.57-34.93,4-41.8,3.56-16-7.12-16-7.12l-.2.24c-1.2-1.77-5-2.85-13.5-3.18-28.1-1.07-28.1-23-49.58-25.12s-12.68-23.53-40.22-36.36-5.51-34.75-20.94-43.84-9-24-12.67-37.6,13.22-18.53,11-34.21,6.61-22.1,17.63-32.08,1.47-20.67,4.41-30.65,10.28-19.25,7.34-33.51-.73-10,13.22-20.67,18.37-26.37,20.57-39.2,17.63-19.25,23.51-21.39,0-9.26,5.88-17.11,28.65-15.68,34.52-18.53,12.49-23.52,17.63-29.23,25-7.12,34.53-10.69,23.5-20,39.67-22.81,41.13,2.5,41.13,2.5,25-5.35,41.14-2.5,30.12,19.25,39.67,22.81S622.34,284.11,627.48,289.81ZM424.86,262h0a11.82,11.82,0,0,0,1.53-.89,11.82,11.82,0,0,1-1.53.89ZM432,257l1.11-.83.05,0-.05,0Zm43.12-92.16c13.74-36.64,58.45-58.47,93.67-36.75,18.17,11.2,27.34,33.68,18.63,53.75,10-2.67,19.85-2.32,28.36,3.54,32.63,22.46,14.84,56.48-23.44,71.24l-.39.14-.79-.59c-8.61-6.51-20.4-15.42-34.7-17.94a71.83,71.83,0,0,0-8.72-1c4.85-20.49,26.35-41.85,26.35-41.85-21.61,8.14-37.13,30.57-44,42.25-7.4.65-14,1.71-17.94,2.42a180.1,180.1,0,0,0-30.07-3c-.5,0-1,0-1.48,0a89.66,89.66,0,0,1-10.18-38.33c-4.82,14-4.25,29.25-3,39.49-12.82,2.37-23.61,9.83-31.87,16-11.35-7.83-21.23-18.88-21-33.51.5-26,27.49-44.51,54.69-32.91A105.33,105.33,0,0,1,475.14,164.85Z"/><path class="cls-1" d="M200,795.57l53.59-56.77,15.89,15L244.79,779.9l42.47-9.28,16.06,15.15L259.45,795l-8.55,48.66-17.74-16.75,7.33-42.46-24.65,26.11Z"/><path class="cls-1" d="M263.92,851.4l47.45-68.19,16.31,11.35-47.45,68.19Z"/><path class="cls-1" d="M309.24,881.61q-7.51-3.93-10-10.09T300.63,858q4.14-7.94,10.95-9t16.81,2.57l10.44,3.62L340,853c1.43-2.75,1.66-4.94.69-6.59s-3.46-3.51-7.44-5.59A71.13,71.13,0,0,0,318.4,835l6-11.53q9.45,1,22.32,7.73,10.29,5.38,13.7,12t-1.11,15.29l-19.76,37.78-14.51-7.59.91-4.76-.51-.27Q319.23,886.84,309.24,881.61Zm11.73-7.9q4.42,2.32,7.52,1.18l5.38-10.3-6.5-2.61a8.15,8.15,0,0,0-5.37-.64,6.54,6.54,0,0,0-3.62,3.54Q315.3,870.74,321,873.71Z"/><path class="cls-1" d="M364.31,924q-7-2.24-10.38-5.28l4-12.39a42.43,42.43,0,0,0,5.87,2.61q7.52,2.41,11.15-2l1.66-2.15-4.36-59,19.69,6.32.82,34.31.22.07,21.09-27.27,17.7,5.68-40.84,51.56q-5.55,7.38-11.42,9T364.31,924Z"/><path class="cls-1" d="M465,931.22q-18-2.34-26.46-13.18t-5.95-30.2l.35-2.64a50.14,50.14,0,0,1,5.28-17.53A29.45,29.45,0,0,1,448,856.59a34.74,34.74,0,0,1,12.9-5.05,50.09,50.09,0,0,1,15.32-.16q13.47,1.75,19.72,6l-2.07,15.78a44.75,44.75,0,0,0-15.42-4.83q-19.47-2.55-22.21,18.42l-.45,3.45q-1.51,11.54,2.19,17.75t14.06,7.58a43.93,43.93,0,0,0,17.24-1l-2,15.44Q477.65,932.89,465,931.22Z"/><path class="cls-1" d="M505.64,933.21l-4.35-83,19.84-1,1.47,28,.46,0q6.88-6.18,18-6.76,17.64-.93,18.49,15.43l2.34,44.44-19.73,1-2-39q-.2-3.6-1.95-5t-5.94-1.14a24.62,24.62,0,0,0-9.06,2.45l2.28,43.51Z"/><path class="cls-1" d="M567.87,861.42l-2.79-14.85,19.75-3.71,2.79,14.84Zm12.43,65.52L569.22,868l19.53-3.67,11.07,58.92Z"/><path class="cls-1" d="M644.54,912.19q-14.19,4.47-23.79-.5t-14-19l-.41-1.33q-4.5-14.3,1-24.26t19.37-14.3q10.53-3.32,16.87-2.13l4.28,13.63a36.58,36.58,0,0,0-13.26,1.61q-6.21,1.95-8.74,6.46t-.35,11.5l.56,1.77c1.69,5.39,4,9,6.88,10.68s6.75,1.84,11.56.33a39.28,39.28,0,0,0,11.87-6.4l4,12.74Q655.62,908.71,644.54,912.19Z"/><path class="cls-1" d="M710.83,882.55l-27.63-17,12.49,24.67-17.62,8.92L640.55,825l17.62-8.92,21.88,43.23,4-30.26,17.52-8.87-4.83,33.17,32.78,19.74Z"/><path class="cls-1" d="M767.3,847.42q-25.26,19-43.55-5.37l-.9-1.21q-8.31-11.05-6.82-22.34t12.25-19.37q11.72-8.79,21.59-6.47T769,807.24l3.07,4.08-29.54,22.19q4.77,5,9.49,4.71t11-5a48.25,48.25,0,0,0,12.15-13.63l7.32,9.76Q778.46,839.05,767.3,847.42Zm-31.2-37.89q-6.69,5-.41,15.13l14.49-10.88q-3.84-5.12-7.15-6C740.83,807.12,738.51,807.72,736.1,809.53Z"/><path class="cls-1" d="M800.46,819l-43.8-40.76,13-14,3.82,3.56.4-.42a30,30,0,0,1,8.39-18.23q12-12.92,24-1.76l32.58,30.31-13.46,14.46-28.58-26.59c-1.75-1.64-3.37-2.37-4.84-2.21s-3.16,1.26-5.06,3.3a24.4,24.4,0,0,0-4.81,8.07L814,804.43Z"/><path class="cls-1" d="M883.48,355.07A403.61,403.61,0,0,0,616.26,122.42a83.36,83.36,0,0,1,8.61,18.15C784,189,900.17,337.2,900.17,512a386.07,386.07,0,0,1-73.52,227l11.21,10.43a403.78,403.78,0,0,0,45.62-394.41Z"/><path class="cls-1" d="M210.09,755.7A386.33,386.33,0,0,1,123.83,512c0-193.33,142.07-354.09,327.29-383.39a110,110,0,0,1,14.52-17.15A403.44,403.44,0,0,0,140.52,668.93a400.47,400.47,0,0,0,59.06,97.9Z"/></svg>