<svg width="32" height="32" viewBox="0 0 32 32" fill="none" xmlns="http://www.w3.org/2000/svg">
<rect width="32" height="32" rx="16" fill="url(#paint0_linear_2_49)"/>
<mask id="mask0_2_49" style="mask-type:alpha" maskUnits="userSpaceOnUse" x="6" y="6" width="21" height="20">
<path d="M23.5261 9.0805L16.6066 15.9494L23.5261 22.8182C27.1625 18.961 27.1625 12.9377 23.5261 9.0805Z" fill="url(#paint1_linear_2_49)"/>
<path d="M9.28305 23.1716L16.1013 26L22.9195 23.1716L16.1013 16.4041L9.28305 23.1716Z" fill="url(#paint2_linear_2_49)"/>
<path d="M15.8491 15.6972L22.9205 8.67646L16.4041 6L9.93927 21.6071L15.8491 15.6972Z" fill="url(#paint3_linear_2_49)"/>
<path d="M6.00002 15.9494C5.99496 18.5043 6.97116 20.963 8.72711 22.8182L15.4947 6.5043L6.00002 15.9494Z" fill="url(#paint4_linear_2_49)"/>
</mask>
<g mask="url(#mask0_2_49)">
<rect x="5.00003" y="5.00001" width="22" height="22" fill="white"/>
</g>
<defs>
<linearGradient id="paint0_linear_2_49" x1="24" y1="2.18182" x2="5.09091" y2="26.9091" gradientUnits="userSpaceOnUse">
<stop stop-color="#FF9900"/>
<stop offset="1" stop-color="#C70000"/>
</linearGradient>
<linearGradient id="paint1_linear_2_49" x1="21.43" y1="9.0805" x2="21.43" y2="22.8182" gradientUnits="userSpaceOnUse">
<stop stop-color="#FFB800"/>
<stop offset="1" stop-color="#E20000"/>
</linearGradient>
<linearGradient id="paint2_linear_2_49" x1="16.1013" y1="16.4041" x2="16.1013" y2="26" gradientUnits="userSpaceOnUse">
<stop stop-color="#FFB800"/>
<stop offset="1" stop-color="#E20000"/>
</linearGradient>
<linearGradient id="paint3_linear_2_49" x1="16.4299" y1="6" x2="16.4299" y2="21.6071" gradientUnits="userSpaceOnUse">
<stop stop-color="#FFB800"/>
<stop offset="1" stop-color="#E20000"/>
</linearGradient>
<linearGradient id="paint4_linear_2_49" x1="10.7474" y1="6.5043" x2="10.7474" y2="22.8182" gradientUnits="userSpaceOnUse">
<stop stop-color="#FFB800"/>
<stop offset="1" stop-color="#E20000"/>
</linearGradient>
</defs>
</svg>
