<?xml version="1.0" encoding="UTF-8"?><svg id="a" xmlns="http://www.w3.org/2000/svg" viewBox="0 0 1024 1024"><defs><style>.b{fill:#fff;}</style></defs><path class="b" d="M512,64.33c60.44,0,119.07,11.83,174.25,35.17,53.31,22.55,101.18,54.83,142.3,95.95,41.12,41.12,73.4,89,95.95,142.3,23.34,55.18,35.17,113.8,35.17,174.25s-11.83,119.07-35.17,174.25c-22.55,53.31-54.83,101.18-95.95,142.3-41.12,41.12-89,73.4-142.3,95.95-55.18,23.34-113.8,35.17-174.25,35.17s-119.07-11.83-174.25-35.17c-53.31-22.55-101.18-54.83-142.3-95.95-41.12-41.12-73.4-89-95.95-142.3-23.34-55.18-35.17-113.8-35.17-174.25s11.83-119.07,35.17-174.25c22.55-53.31,54.83-101.18,95.95-142.3,41.12-41.12,89-73.4,142.3-95.95,55.18-23.34,113.8-35.17,174.25-35.17m0-20C253.71,44.33,44.33,253.71,44.33,512s209.38,467.67,467.67,467.67,467.67-209.38,467.67-467.67S770.29,44.33,512,44.33h0Z"/><g><path class="b" d="M512,782.36c-34.58,0-65.42-12.81-80.98-31.14-1.13,.2-2.38,.42-3.44,.62-5.18,.95-11.74,2.14-18.66,2.74,16.85,28.06,56.66,47.78,103.08,47.78s86.31-19.76,103.13-47.87c-6.55-.63-12.73-1.75-17.67-2.65-1.36-.25-3.02-.55-4.35-.77-15.52,18.41-46.44,31.29-81.11,31.29Z"/><path class="b" d="M530.4,432.06h-229.44c-5.27,0-9.54,4.27-9.54,9.54v55.96c0,56.26,45.61,101.86,101.86,101.86,39.57,0,73.87-22.56,90.73-55.52,5.65,5.39,14.88,11.35,28.14,11.35,9.45,0,16.85-3.03,22.37-6.72,17.62,30.42,50.52,50.88,88.2,50.88,56.26,0,101.86-45.61,101.86-101.86v-55.96c0-5.27-4.27-9.54-9.54-9.54h-184.65Zm-56.66,65.5c0,45.64-38.2,82.53-84.3,80.37-43.35-2.02-76.63-39.53-76.63-82.93v-26.05c0-8.56,6.94-15.5,15.5-15.5h129.93c8.56,0,15.5,6.94,15.5,15.5v28.6Zm38.41,43.01c-13.38,0-20.39-9.54-21.88-11.83,3.16-9.83,4.87-20.3,4.87-31.18v-31.59h25.72v31.59c0,13.28,2.54,25.96,7.16,37.59-3.64,2.82-8.89,5.42-15.87,5.42Zm189.16-71.61v28.6c0,45.64-38.2,82.53-84.3,80.37-31.28-1.46-57.31-21.4-69.38-48.69-.06-.17-.14-.34-.22-.51-4.52-10.4-7.03-21.84-7.03-33.73v-26.05c0-8.56,6.94-15.5,15.5-15.5h129.93c8.56,0,15.5,6.94,15.5,15.5Z"/><path class="b" d="M379.09,573.23c-44.36-30.03,14.2-113.13,14.2-113.13h-53.42c-35.12,92.83,39.22,113.13,39.22,113.13Z"/><path class="b" d="M609.49,573.23c-44.36-30.03,14.2-113.13,14.2-113.13h-53.42c-35.12,92.83,39.22,113.13,39.22,113.13Z"/><path class="b" d="M455.36,166.08c-.94-.04-1.88-.07-2.82-.07-14.73,0-28.64,5.53-39.18,15.58-10.73,10.23-16.8,24.04-17.08,38.87-.31,16.36,7.12,31.12,21.41,43.32-1.19,.26-2.41,.51-3.58,.76-12.17,2.53-23.66,4.92-30.92,12.98-3.95,4.38-6.78,10.28-10.05,17.12-1.26,2.63-3.19,6.66-4.57,9.01-.75,.31-1.57,.65-2.34,.97-15.67,6.45-29.21,12.55-36.25,21.94-3.9,5.2-5.5,10.37-6.15,14.59-15.02,7.52-24.37,18.6-26.63,31.81-2.4,13.96-6.48,22.25-13.64,27.74-2.93,2.24-5.18,3.65-7.17,4.89-4.34,2.71-10.27,6.41-13.05,14.45-2.42,6.99-1.03,13.69,.19,19.61,.93,4.53-.36,7.88-3.14,14.43-1.28,3.01-2.73,6.42-3.83,10.18-2.31,7.86-1.12,14.77-.25,19.81,.16,.94,.36,2.11,.48,3.01-.6,.54-1.18,1.06-1.76,1.58-10.9,9.75-24.47,21.89-21.07,46.07,.02,.12,.02,.19,.02,.19-.22,.81-1.81,3.05-2.87,4.53-4.13,5.8-11.82,16.6-7.71,31.74,.6,2.22,.72,5.44,.83,8.84,.35,10.08,.93,26.58,17.34,37.93-.02,.76-.06,1.57-.09,2.27-.45,10.3-1.38,31.73,25.48,44.24,8.33,3.88,10.6,8.06,14.04,14.38,4.39,8.07,11.73,21.57,32.11,23.6,3.19,.32,4.72,1.51,9.86,6.45,6.12,5.88,14.82,14.25,30.14,17.47,0,0,11.27,.49,17.81,2.34,4.67,1.37,12.04,3.43,20.44,5.34,14.31,3.26,35.77-3.26,42.08-3.26s11.78,5.3,23.15,3.67c11.36-1.63,22.72-1.59,32.82,1.27,10.1,2.86,23.12,0,23.12,0,0,0,13.02,2.86,23.12,0,10.1-2.86,21.46-2.9,32.82-1.27,11.36,1.63,16.83-3.67,23.15-3.67,5.68,0,23.65,5.29,37.62,3.96,3.13,4.43,7.23,8.31,12.08,11.4-4.63,7.41-8.67,14.64-7.01,24.28,1.87,10.83,9.79,19.91,20.58,22.38,9.37,2.14,13.36-12.27,3.97-14.42-6.5-1.49-10.99-7.79-9.95-14.56,.75-4.84,4.2-9.17,7.14-13.32l25.76-1.71c4.12-.27,7.24-3.83,6.96-7.95-.27-4.12-3.74-7.27-7.95-6.96l-27.44,1.83c-11.03-5.53-18.66-15.15-15.25-28.14,.66-2.49,1.61-5.13,3.07-7.31,.24-.09,2.02-2.01,2.24-2.22,1.37-1.3,3.59-3.71,5.46-4.7l31.88,2.3c.18,.01,.36,.02,.54,.02,3.88,0,7.17-3,7.45-6.94,.3-4.12-2.8-7.7-6.92-7.99l-29.35-2.12c-6.77-10.29-2.36-24.08,6.12-32.08,10.31-9.73,25.03-12.9,38.71-13.89,15.61-1.14,31.37-.86,47.01-1.13,5.65-.09,12.52,.71,15.47-5.19,2.91-5.82,2.12-14.71,2.76-21.09,2.78-28.05,7.25-59.1,27.38-80.54,8.79-9.36,20.52-16.24,33.43-17.74,11.33-1.32,29.91,1.63,31.7,15.58,1.03,8.05-1.63,17.08-3.48,24.84-1.94,8.18-4.27,16.26-6.38,24.39-4.09,15.82-7.21,31.99-5.52,48.38,.98,9.48,15.94,9.58,14.95,0-2.45-23.76,5.96-46.04,11.36-68.8,4.63-19.51,8.53-41.97-12.09-53.44-17.25-9.6-38.88-7.2-55.83,1.78-4.34,2.3-8.35,5.05-12.04,8.15-4.35-8.04-10.92-13.94-16.74-19.15-.58-.52-1.17-1.04-1.76-1.58,.11-.9,.31-2.06,.48-3.01,.87-5.05,2.06-11.96-.25-19.81-1.11-3.76-2.56-7.17-3.83-10.18-2.78-6.55-4.08-9.9-3.14-14.43,1.22-5.92,2.6-12.62,.18-19.61-2.78-8.04-8.72-11.74-13.05-14.45-1.99-1.24-4.24-2.65-7.17-4.89-7.16-5.49-11.24-13.79-13.64-27.74-2.27-13.21-11.62-24.28-26.63-31.81-.65-4.22-2.25-9.38-6.15-14.59-7.04-9.39-20.58-15.49-36.25-21.94-.78-.32-1.59-.66-2.34-.97-1.37-2.35-3.31-6.38-4.57-9.01-3.28-6.84-6.11-12.74-10.05-17.12-6.18-6.85-15.41-9.6-25.52-11.83h0c20.05-11.95,33.12-29.13,35.27-47.37,1.27-10.73-.25-31.25-24.66-48.05-5.28-3.63-11.05-6.09-17.25-7.36-1.07-19.83-12.02-39.04-30.51-50.44-12.06-7.44-25.86-11.37-39.91-11.37-34.79,0-67.93,23.56-80.58,57.3-.97,2.58-1.83,5.14-2.6,7.67Zm172.13,123.73c5.14,5.7,11.75,26.37,17.63,29.23,5.88,2.85,28.65,10.69,34.53,18.53,5.88,7.84,0,14.97,5.88,17.11,5.88,2.14,21.3,8.55,23.51,21.38,2.2,12.83,6.61,28.51,20.57,39.21,13.96,10.69,16.16,6.42,13.22,20.67-2.94,14.26,4.41,23.52,7.35,33.5,2.94,9.98-6.61,20.67,4.41,30.65,8.58,7.77,15.83,13.38,17.57,22.9-4.67,6.51-8.53,13.63-11.61,20.97-4.98,11.87-8,24.33-9.96,37.03-.96,6.19-1.72,12.41-2.39,18.64-.57,5.34-.42,11.62-1.36,17.24-6.6,.76-14.38-.14-20.52-.03-7.83,.13-15.66,.16-23.48,.51-14.9,.66-30.02,2.81-43.23,10.16-19.76,11-31.3,34.74-21.92,54.97-6.36,4.99-11.53,13.43-13.36,19.03-1.89,5.78-2.35,11.47-1.63,16.84-11.04-2.05-28.21-6.16-33.61-2.55-7.15,4.79-13.05,2.77-18.94,3.58s-29.46-6.51-35.35,0c-3.27,3.62-9.78,2.65-14.92,1.07-4.78-1.47-9.93-1.47-14.71,0-5.14,1.58-11.65,2.55-14.92-1.07-5.89-6.51-29.46,.8-35.35,0s-11.78,1.21-18.94-3.58c-7.15-4.79-34.93,3.97-41.8,3.56-6.87-.41-15.96-7.12-15.96-7.12l-.2,.24c-1.19-1.77-4.98-2.85-13.5-3.17-28.1-1.07-28.1-22.99-49.58-25.13-21.49-2.14-12.67-23.52-40.22-36.35-27.55-12.83-5.51-34.75-20.94-43.84-15.43-9.09-9-24.06-12.67-37.6-3.67-13.54,13.22-18.53,11.02-34.22-2.2-15.68,6.61-22.1,17.63-32.08,11.02-9.98,1.47-20.67,4.41-30.65,2.94-9.98,10.28-19.25,7.35-33.5-2.94-14.26-.73-9.98,13.22-20.67,13.96-10.69,18.36-26.37,20.57-39.21,2.2-12.83,17.63-19.25,23.51-21.38,5.88-2.14,0-9.27,5.88-17.11,5.88-7.84,28.65-15.68,34.53-18.53,5.88-2.85,12.49-23.52,17.63-29.23s24.98-7.13,34.53-10.69c9.55-3.56,23.51-19.96,39.67-22.81,16.16-2.85,41.14,2.49,41.14,2.49,0,0,24.98-5.35,41.14-2.49,16.16,2.85,30.12,19.25,39.67,22.81,9.55,3.56,29.38,4.99,34.53,10.69Zm-202.63-27.86h.01c.38-.17,.91-.49,1.53-.89-.62,.4-1.15,.72-1.53,.89h-.01Zm7.16-4.93c.38-.29,.75-.57,1.11-.84l.05-.04-.05,.04c-.36,.27-.73,.55-1.11,.84Zm43.13-92.16c13.74-36.64,58.44-58.47,93.67-36.75,18.16,11.2,27.34,33.67,18.63,53.75,9.96-2.67,19.85-2.32,28.35,3.54,32.63,22.46,14.85,56.48-23.43,71.24-.13,.05-.26,.09-.4,.14-.27-.2-.54-.4-.79-.6-8.61-6.51-20.4-15.42-34.7-17.94-2.67-.47-5.6-.78-8.72-.95,4.84-20.49,26.35-41.85,26.35-41.85-21.62,8.14-37.14,30.57-44.02,42.26-7.4,.65-13.99,1.71-17.94,2.42-6.03-1.09-18.23-2.99-30.07-2.99-.5,0-.98,.02-1.48,.03-10.25-19.13-10.18-38.33-10.18-38.33-4.82,14.01-4.26,29.26-2.96,39.5-12.82,2.37-23.61,9.83-31.87,16.01-11.35-7.84-21.23-18.88-20.95-33.51,.49-26,27.49-44.51,54.69-32.91,.98-7.35,2.82-15.05,5.82-23.04Z"/><g><path class="b" d="M199.96,795.57l53.6-56.78,15.88,15-24.65,26.11,42.47-9.28,16.05,15.16-43.87,9.24-8.54,48.66-17.74-16.75,7.33-42.46-24.65,26.11-15.88-15Z"/><path class="b" d="M263.92,851.4l47.45-68.19,16.31,11.35-47.45,68.19-16.31-11.35Z"/><path class="b" d="M309.24,881.61c-5.01-2.62-8.34-5.98-10-10.08s-1.19-8.62,1.39-13.56c2.76-5.29,6.41-8.29,10.95-9.03,4.53-.73,10.14,.12,16.82,2.57l10.43,3.62,1.13-2.16c1.44-2.75,1.67-4.94,.69-6.59-.98-1.65-3.45-3.51-7.43-5.59-4.8-2.51-9.74-4.44-14.81-5.78l6.03-11.53c6.29,.67,13.73,3.25,22.31,7.73,6.86,3.59,11.43,7.6,13.71,12.02,2.28,4.43,1.91,9.52-1.11,15.29l-19.76,37.79-14.52-7.59,.92-4.76-.51-.27c-4.16,2.11-9.57,1.42-16.23-2.06Zm11.73-7.89c2.95,1.54,5.46,1.93,7.51,1.18l5.38-10.3-6.5-2.61c-2.17-.87-3.96-1.08-5.37-.64-1.41,.44-2.62,1.62-3.62,3.54-2.05,3.91-1.18,6.86,2.59,8.83Z"/><path class="b" d="M364.31,924.04c-4.65-1.49-8.11-3.25-10.38-5.29l3.98-12.39c2.51,1.29,4.47,2.17,5.87,2.62,5.02,1.61,8.73,.93,11.15-2.03l1.67-2.15-4.37-59,19.69,6.32,.82,34.31,.22,.07,21.08-27.28,17.7,5.68-40.84,51.56c-3.69,4.91-7.5,7.9-11.42,8.96-3.92,1.06-8.98,.6-15.17-1.39Z"/><path class="b" d="M464.98,931.22c-11.98-1.57-20.8-5.96-26.46-13.19-5.66-7.22-7.64-17.29-5.95-30.19l.35-2.65c.89-6.84,2.65-12.68,5.28-17.53,2.63-4.85,5.9-8.54,9.83-11.08,3.92-2.53,8.23-4.22,12.91-5.05s9.78-.89,15.31-.17c8.99,1.18,15.56,3.17,19.72,5.98l-2.07,15.78c-4.68-2.49-9.82-4.1-15.42-4.83-12.98-1.7-20.38,4.44-22.21,18.42l-.45,3.46c-1.01,7.68-.28,13.6,2.19,17.75,2.46,4.15,7.15,6.68,14.06,7.58,5.99,.79,11.74,.44,17.24-1.02l-2.02,15.44c-6.43,1.97-13.87,2.4-22.32,1.3Z"/><path class="b" d="M505.64,933.21l-4.36-82.96,19.84-1.04,1.47,27.96,.46-.02c4.59-4.12,10.6-6.37,18.03-6.76,11.76-.62,17.92,4.53,18.5,15.43l2.33,44.44-19.72,1.04-2.05-38.99c-.13-2.4-.78-4.05-1.95-4.96-1.17-.91-3.15-1.29-5.94-1.14-2.86,.15-5.88,.97-9.06,2.45l2.28,43.51-19.84,1.04Z"/><path class="b" d="M567.87,861.42l-2.79-14.84,19.75-3.71,2.79,14.84-19.75,3.71Zm12.43,65.52l-11.07-58.92,19.53-3.67,11.07,58.92-19.53,3.67Z"/><path class="b" d="M644.54,912.19c-9.46,2.97-17.39,2.8-23.79-.5-6.4-3.31-11.07-9.66-14.02-19.04l-.42-1.33c-2.99-9.53-2.65-17.62,1.03-24.25,3.68-6.64,10.14-11.4,19.38-14.31,7.02-2.21,12.64-2.91,16.87-2.13l4.28,13.63c-4.55-.27-8.97,.26-13.26,1.61-4.14,1.3-7.06,3.46-8.75,6.46-1.69,3.01-1.81,6.84-.35,11.5l.56,1.77c1.69,5.39,3.99,8.96,6.89,10.68,2.9,1.73,6.75,1.84,11.55,.33,3.92-1.23,7.87-3.37,11.87-6.41l4,12.75c-3.18,3.84-8.46,6.92-15.85,9.24Z"/><path class="b" d="M710.83,882.55l-27.62-17.01,12.49,24.67-17.62,8.92-37.52-74.12,17.62-8.92,21.88,43.23,3.95-30.26,17.52-8.87-4.82,33.17,32.78,19.74-18.66,9.45Z"/><path class="b" d="M767.3,847.42c-16.85,12.65-31.36,10.86-43.55-5.36l-.91-1.21c-5.54-7.37-7.81-14.82-6.82-22.34,.99-7.52,5.07-13.98,12.26-19.38,7.8-5.86,15-8.02,21.58-6.47,6.58,1.55,12.95,6.41,19.09,14.58l3.07,4.09-29.54,22.19c3.18,3.33,6.34,4.9,9.5,4.71,3.15-.19,6.83-1.86,11.05-5.03,4.71-3.54,8.76-8.08,12.14-13.63l7.33,9.76c-2.69,6.48-7.75,12.51-15.19,18.09Zm-31.21-37.88c-4.46,3.35-4.6,8.39-.41,15.13l14.49-10.88c-2.56-3.41-4.94-5.42-7.15-6.04-2.21-.62-4.52-.02-6.94,1.79Z"/><path class="b" d="M800.46,818.97l-43.8-40.76,12.98-13.95,3.83,3.56,.4-.43c.58-6.76,3.37-12.84,8.39-18.22,8.02-8.62,16.03-9.21,24.02-1.77l32.58,30.31-13.46,14.46-28.58-26.59c-1.76-1.63-3.37-2.37-4.85-2.21-1.47,.16-3.16,1.26-5.06,3.31-1.95,2.1-3.55,4.79-4.81,8.07l31.9,29.68-13.54,14.54Z"/></g><path class="b" d="M883.48,355.07c-20.31-48.01-49.38-91.13-86.4-128.15-37.02-37.02-80.14-66.09-128.15-86.4-17.21-7.28-34.79-13.31-52.68-18.1,3.59,5.68,6.49,11.77,8.61,18.15,159.16,48.46,275.3,196.63,275.3,371.43,0,84.71-27.29,163.16-73.52,227.05l11.21,10.44c18.22-24.93,33.49-51.86,45.62-80.55,21.02-49.71,31.69-102.51,31.69-156.93s-10.66-107.22-31.69-156.93Z"/><path class="b" d="M210.09,755.7c-53.92-66.67-86.26-151.48-86.26-243.7,0-193.33,142.07-354.09,327.29-383.39,4.26-6.21,9.13-11.96,14.51-17.15-38.07,4.34-75.11,14.06-110.57,29.06-48.01,20.31-91.13,49.38-128.15,86.4-37.02,37.02-66.09,80.14-86.4,128.15-21.03,49.71-31.69,102.51-31.69,156.93s10.66,107.22,31.69,156.93c15,35.47,34.81,68.26,59.06,97.9l10.51-11.13Z"/></g></svg>