<?xml version="1.0" encoding="UTF-8"?><svg xmlns="http://www.w3.org/2000/svg" xmlns:xlink="http://www.w3.org/1999/xlink" viewBox="0 0 487.88 290.14"><defs><style>.f{fill:url(#e);}.g{fill:url(#d);}.h{fill:#b3b3b3;}.i{fill:#1c1c1c;}.j{fill:gray;}.k{fill:#0d0d0d;fill-rule:evenodd;}</style><linearGradient id="d" x1="2.32" y1="145.07" x2="485.56" y2="145.07" gradientTransform="matrix(1, 0, 0, 1, 0, 0)" gradientUnits="userSpaceOnUse"><stop offset=".1" stop-color="#fff"/><stop offset=".44" stop-color="#f9f9f9"/><stop offset=".87" stop-color="#eaeaeb"/><stop offset="1" stop-color="#e4e4e5"/></linearGradient><linearGradient id="e" x1="240.86" y1="282.99" x2="247.01" y2="276.84" gradientTransform="matrix(1, 0, 0, 1, 0, 0)" gradientUnits="userSpaceOnUse"><stop offset="0" stop-color="#404040"/><stop offset=".11" stop-color="#2d2d2d"/><stop offset=".26" stop-color="#191919"/><stop offset=".43" stop-color="#0a0a0a"/><stop offset=".65" stop-color="#020202"/><stop offset="1" stop-color="#000"/></linearGradient></defs><g id="a"/><g id="b"><g id="c"><g><g><path class="j" d="M1.99,.5H485.89c.82,0,1.49,.67,1.49,1.49V288.15c0,.82-.67,1.49-1.49,1.49H1.99c-.82,0-1.49-.67-1.49-1.49V1.99C.5,1.16,1.16,.5,1.99,.5Z"/><path d="M485.89,290.14H1.99c-1.1,0-1.99-.89-1.99-1.99V1.99C0,.89,.89,0,1.99,0H485.89c1.1,0,1.99,.89,1.99,1.99V288.15c0,1.1-.89,1.99-1.99,1.99ZM1.99,.99c-.55,0-.99,.45-.99,1V288.15c0,.55,.45,1,.99,1H485.89c.55,0,1-.45,1-1V1.99c0-.55-.45-1-1-1H1.99Z"/></g><path class="g" d="M485.55,3.15c-.03-.19-.11-.36-.23-.5-.18-.2-.43-.31-.69-.31H3.25c-.51,0-.93,.42-.93,.93V286.87c0,.51,.42,.93,.93,.93H484.63c.52,0,.93-.42,.93-.93V3.41c0-.09,0-.18,0-.27Z"/><path class="f" d="M247.02,276.85c.81,.82,1.27,1.93,1.26,3.08,0,1.16-.47,2.26-1.29,3.07-.82,.81-1.92,1.26-3.08,1.26-1.16,0-2.26-.47-3.07-1.29-.81-.82-1.26-1.93-1.26-3.08,0-1.15,.47-2.26,1.29-3.07,.82-.81,1.93-1.27,3.08-1.26,1.15,0,2.25,.47,3.07,1.29Z"/><path class="h" d="M243.94,281.86c-.87,0-1.65-.55-1.95-1.36-.1-.26-.14-.54-.12-.83,0-.19,.04-.37,.11-.56,.12-.35,.34-.67,.63-.92,.05-.04,.1-.08,.16-.12,.02-.02,.03-.02,.05-.03,.02-.01,.04-.02,.06-.02h0s.07,0,.1,.02c.07,.03,.11,.11,.11,.18,0,.04-.02,.07-.04,.11-.01,.01-.03,.03-.05,.04-.09,.06-.17,.13-.25,.21-.31,.31-.49,.73-.5,1.17-.01,.46,.16,.9,.48,1.23,.32,.33,.76,.52,1.22,.52s.9-.18,1.22-.52c.32-.33,.5-.77,.48-1.23-.01-.44-.19-.85-.5-1.16-.08-.08-.17-.15-.26-.21-.02-.01-.04-.03-.05-.04-.02-.03-.04-.07-.04-.1,0-.07,.04-.15,.11-.18,.02-.01,.05-.02,.07-.02,.01,0,.02,0,.04,0,.02,0,.04,0,.06,.02,.02,0,.04,.02,.05,.03,.05,.04,.11,.08,.16,.12,.29,.25,.51,.57,.63,.92,.06,.17,.1,.35,.11,.56,.02,.28-.03,.56-.12,.83-.3,.82-1.09,1.36-1.96,1.36Z"/><path class="h" d="M243.94,279.62c-.09,0-.17-.06-.18-.15,0-.02,0-.05,0-.08v-2.07s0-.05,0-.08c.02-.08,.1-.14,.18-.14s.16,.06,.18,.14c0,.03,0,.05,0,.08v2.07s0,.06,0,.08c-.02,.09-.09,.15-.18,.15Z"/><path class="k" d="M473.29,14.77c-.14-.19-.36-.31-.6-.31H15.51s-.31,0-.35,0c-.11,0-.23,.04-.33,.09-.21,.12-.36,.33-.38,.57,0,.06,0,.11,0,.17v255.85c0,.05,0,.11,0,.16,.02,.12,.06,.23,.13,.32,.14,.19,.36,.31,.61,.31H472.37s.31,0,.35,0c.11,0,.23-.04,.33-.09,.21-.12,.36-.33,.38-.57,0-.06,0-.11,0-.17V15.26c0-.06,0-.11,0-.17-.02-.11-.06-.23-.13-.32Z"/><rect class="i" x="15.49" y="15.46" width="456.9" height="255.49"/></g></g></g></svg>