<?xml version="1.0" encoding="utf-8"?>
<!-- Generator: Adobe Illustrator 26.2.1, SVG Export Plug-In . SVG Version: 6.00 Build 0)  -->
<svg version="1.1" id="레이어_1" xmlns="http://www.w3.org/2000/svg" xmlns:xlink="http://www.w3.org/1999/xlink" x="0px"
	 y="0px" viewBox="0 0 1024 1024" style="enable-background:new 0 0 1024 1024;" xml:space="preserve">
<style type="text/css">
	.st0{fill:#B7B7B7;}
</style>
<g>
	<path class="st0" d="M611.9,474.3c-30,0-53.9,27.1-53.9,60.5s24.3,60.5,53.9,60.5c30.3,0,53.9-27.1,53.9-60.5
		C666.3,501.7,642.2,474.3,611.9,474.3z"/>
	<path class="st0" d="M412.5,474.3c-30,0-53.9,27.1-53.9,60.5s24.3,60.5,53.9,60.5c30,0,53.9-27.1,53.9-60.5
		C466.9,501.7,442.8,474.3,412.5,474.3z"/>
	<path class="st0" d="M512,0C229.2,0,0,229.2,0,512s229.2,512,512,512s512-229.2,512-512S794.8,0,512,0z M809.5,663.5
		c0,0.6-0.3,1.1-0.8,1.4c-45.3,33.6-96.1,59.2-150,75.8c-0.8,0.2-1.6,0-2.1-0.7c-11.4-15.8-21.7-32.5-30.6-49.8
		c0-0.1-0.1-0.1-0.1-0.2c-0.4-1,0.1-2.1,1.1-2.5c16.2-6.1,31.9-13.5,46.9-22.3c0.2-0.1,0.4-0.3,0.6-0.5c0.6-0.8,0.5-2.1-0.4-2.7
		c-3.2-2.4-6.4-4.8-9.4-7.3c-0.6-0.5-1.3-0.5-2-0.2c-97.1,44.8-203.4,44.8-301.6,0c-0.6-0.3-1.4-0.2-1.9,0.3c-3,2.5-6.2,4.9-9.3,7.3
		c-0.2,0.2-0.4,0.3-0.5,0.6c-0.5,0.9-0.2,2.1,0.7,2.6c15,8.6,30.6,16.1,46.8,22.3c0.1,0,0.1,0.1,0.2,0.1c0.9,0.5,1.3,1.6,0.8,2.5
		c-8.8,17.4-19.1,34.1-30.7,49.9c-0.5,0.6-1.3,0.9-2.1,0.7c-53.9-16.6-104.6-42.2-149.9-75.8c-0.4-0.3-0.7-0.9-0.8-1.4
		c-10.5-111.9,10.9-225.3,88.6-341.6c0.2-0.3,0.5-0.6,0.8-0.7c38.9-17.9,79.9-30.6,122.1-37.9c0.8-0.1,1.6,0.2,2,0.9
		c5.7,10.1,10.9,20.6,15.4,31.2c45.5-6.9,91.7-6.9,137.2,0c4.6-10.7,9.6-21.1,15.2-31.2c0.4-0.7,1.2-1.1,2-0.9
		c42.2,7.3,83.2,20,122.2,37.9l0,0c0.3,0.2,0.6,0.4,0.7,0.7C788.5,421.6,822,534.1,809.5,663.5z"/>
</g>
</svg>
