<?xml version="1.0" encoding="UTF-8"?><svg id="a" xmlns="http://www.w3.org/2000/svg" viewBox="0 0 1024 1024"><defs><style>.b{fill:#b7b7b7;}</style></defs><g><path class="b" d="M512.3,0c-68.5-.1-136.2,13.6-199.3,40.2C52.5,150.4-69.5,450.7,40.6,711.2s410.5,382.3,670.9,272.3c189.2-80.2,312.3-265.7,312.4-471.2C1024.1,229.6,795,.2,512.3,0Zm424.7,332.5c62.8,149,43,320-52.1,450.8l-12.8-11.9c54.7-75.5,84.2-166.4,84-259.5,0-199.9-132.9-369.3-314.8-424.8-2.4-7.2-5.7-14.2-9.8-20.7,137.4,37,250.1,135.1,305.5,266.1ZM543.1,42.2c16.1,0,31.9,4.6,45.6,13,20.4,12.3,33.4,33.8,34.9,57.6,7.1,1.5,13.7,4.3,19.7,8.5,27.9,19.2,29.7,42.6,28.2,54.9-2.5,20.9-17.5,40.6-40.4,54.2,11.5,2.5,22.1,5.6,29.2,13.5,4.6,5,7.8,11.8,11.5,19.6,1.5,3,3.7,7.5,5.3,10.3l2.6,1.1c17.8,7.4,33.4,14.4,41.4,25.2,3.8,4.9,6.2,10.6,7.1,16.7,17.2,8.6,27.8,21.3,30.4,36.4,2.7,15.9,7.3,25.4,15.5,31.7,2.6,2.1,5.4,3.9,8.2,5.6,5,3.2,11.8,7.4,15,16.6,2.7,8,1.1,15.7-.2,22.4-1.1,5.1,.3,9,3.5,16.5,1.6,3.8,3.1,7.7,4.3,11.7,2.6,8.9,1.3,16.9,.2,22.6-.2,1-.5,2.4-.6,3.4,.7,.7,1.4,1.3,2.1,1.8,6.6,5.9,14.2,12.7,19.1,21.8,4.2-3.7,8.9-6.7,13.8-9.4,19.3-10.3,44.1-13,63.8-2.1,23.6,13,19.1,38.8,13.8,61.1-6.2,26.1-15.9,51.5-13,78.7,1,11-16,10.9-17.2,0-1.9-18.8,1.6-37.3,6.3-55.3,2.4-9.3,5.1-18.5,7.3-27.9,2.2-8.8,5.1-19.2,4-28.4-2.1-16-23.3-19.3-36.2-17.8-14.7,1.8-28.1,9.6-38.2,20.4-23.1,24.5-28.1,60-31.3,92-.8,7.3,.2,17.4-3.2,24.1-3.4,6.7-11.2,5.8-17.7,5.9-17.8,.2-35.9,0-53.7,1.3-15.7,1.1-32.5,4.8-44.2,15.9-9.6,9.1-14.7,24.9-7,36.7l33.6,2.4c4.6,.2,8.2,4.1,8.1,8.8-.1,4.8-4.1,8.5-8.8,8.3h-.6l-36.5-2.6c-2.2,1.1-4.7,3.9-6.3,5.4-.2,.2-2.3,2.4-2.5,2.5-1.6,2.5-2.9,5.4-3.5,8.3-4,14.7,4.8,25.8,17.4,32.1l31.3-2.1h.2c4.7-.2,8.7,3.3,8.9,8v.1c.3,4.7-3.3,8.7-8,9l-29.5,1.9c-3.3,4.7-7.2,9.7-8.1,15.2-1.1,7.8,3.9,15,11.4,16.7,10.7,2.4,6.2,18.9-4.6,16.5-12.3-2.9-21.4-13.3-23.6-25.6-1.9-11.1,2.7-19.3,8-27.8-5.4-3.4-10.1-7.9-13.8-13-15.9,1.5-36.5-4.6-43-4.6-7.3,0-13.6,6.1-26.5,4.2-12.9-1.8-26-1.8-37.5,1.5s-26.4,0-26.4,0c0,0-14.9,3.3-26.4,0s-24.6-3.3-37.5-1.5-19.2-4.2-26.4-4.2-31.8,7.5-48.1,3.8c-9.6-2.2-18-4.5-23.3-6.1-7.4-2.1-20.4-2.6-20.4-2.6-17.5-3.8-27.4-13.3-34.4-20-5.9-5.7-7.7-7.1-11.3-7.4-23.3-2.3-31.7-17.7-36.7-27-3.9-7.2-6.5-12-16-16.5-30.8-14.3-29.7-38.9-29.3-50.7,0-.8,.1-1.7,.1-2.6-18.8-12.9-19.3-31.8-19.8-43.3,.1-3.3-.2-6.7-.9-10.1-4.7-17.4,4.1-29.7,8.8-36.4,1.3-1.6,2.4-3.3,3.3-5.1v-.2c-3.9-27.7,11.7-41.5,24.1-52.7,.7-.6,1.4-1.3,2.1-1.8-.1-1-.3-2.4-.6-3.4-1-5.7-2.4-13.6,.2-22.6,1.1-4,2.6-7.9,4.3-11.7,3.1-7.4,4.6-11.3,3.5-16.5-1.4-6.7-3-14.4-.2-22.4,3.2-9.1,9.9-13.4,15-16.5,2.9-1.7,5.6-3.5,8.2-5.6,8.1-6.3,12.8-15.7,15.5-31.7,2.5-15.1,13.3-27.8,30.4-36.4,.9-6.1,3.3-11.8,7-16.7,8-10.7,23.4-17.7,41.4-25l2.6-1.1c1.6-2.6,3.8-7.3,5.3-10.3,3.7-7.8,6.9-14.5,11.4-19.6,8.3-9.3,21.4-12,35.3-14.9l4.1-.9c-16.4-13.9-24.8-30.8-24.5-49.5,.3-16.9,7.3-32.9,19.6-44.5,12.1-11.5,28.1-18,44.8-17.8,1,0,2.2,.1,3.2,.1,.8-2.9,1.8-5.8,3.4-8.7,15-38.4,52.8-65.4,92.6-65.4ZM87.5,691.3c-16.9-40.1-28.1-82.6-33.2-125.9C24.8,312.3,206.2,83.4,459.2,53.9c-6.2,6.1-11.8,12.6-16.6,19.7C230.9,107,68.4,290.9,68.4,511.9c0,101.4,34.8,199.9,98.7,278.6l-12,12.7c-27.8-33.8-50.6-71.6-67.6-111.9Zm126.2,199.8l-20.2-19.2,8.3-48.6-28.1,29.8-18.2-17,61.3-64.9,18.2,17.2-28.2,29.8,48.6-10.6,18.4,17.4-50.2,10.5-9.9,55.6Zm14.9,8.8l54.3-78,18.6,12.9-54.3,78-18.6-12.9Zm69.8,42.7l1-5.5-.6-.3c-4.7,2.5-10.9,1.7-18.5-2.3-5.7-3-9.5-6.9-11.4-11.5-1.9-4.7-1.4-9.8,1.6-15.4,3.2-6.1,7.3-9.5,12.6-10.3s11.5,.1,19.2,3l11.9,4.1,1.4-2.5c1.6-3.2,1.9-5.6,.8-7.5s-4-4-8.5-6.4c-5.4-2.9-11.1-5-17-6.6l6.9-13.1c7.2,.8,15.7,3.7,25.5,8.8,7.9,4.1,13,8.7,15.7,13.7,2.6,5,2.2,10.9-1.3,17.5l-22.7,43-16.6-8.7Zm75.4,31.7c-4.2,5.6-8.6,9-13,10.3-4.5,1.3-10.3,.8-17.4-1.6-5.4-1.7-9.3-3.8-11.9-6.1l4.6-14.2c2.2,1.1,4.5,2.2,6.7,3,5.7,1.8,9.9,1,12.7-2.3l1.9-2.5-5-67.5,22.5,7.2,.9,39.2,.2,.1,24.1-31.2,20.2,6.5-46.5,59.1Zm117.6-49.4c-5.5-2.9-11.4-4.8-17.6-5.5-14.9-1.9-23.3,5-25.4,21l-.6,4c-1.1,8.8-.3,15.5,2.5,20.4,2.9,4.8,8.2,7.7,16.1,8.7,6.6,.9,13.3,.6,19.7-1.1l-2.3,17.6c-7.2,2.1-15.8,2.5-25.4,1.3-13.7-1.8-23.8-6.9-30.3-15.1-6.4-8.2-8.7-19.8-6.9-34.5l.5-3c.8-7,2.9-13.8,6.1-20,2.6-5.1,6.4-9.5,11.2-12.7,4.5-2.9,9.5-4.8,14.7-5.7,5.8-.9,11.7-1,17.5-.2,10.3,1.4,17.8,3.7,22.5,6.9l-2.3,17.9Zm55.3,66.3l-2.3-44.6c-.1-2.7-.9-4.7-2.3-5.7-1.4-1-3.5-1.5-6.7-1.3-3.5,.2-7.1,1.3-10.4,2.9l2.6,49.7-22.6,1.3-5-94.9,22.6-1.1,1.7,32h.6c5.3-4.7,12.1-7.3,20.6-7.8,13.5-.7,20.5,5.1,21.2,17.6l2.6,50.8-22.6,1.1Zm26.3-96.7l22.6-4.2,3.2,16.9-22.6,4.2-3.2-16.9Zm17.3,91.8l-12.7-67.3,22.3-4.2,12.7,67.3-22.3,4.2Zm-78-142.4c-53.1,0-98.6-22.5-117.9-54.7,8-.7,15.4-1.9,21.4-3.1l3.9-.7c17.8,20.9,53.1,35.6,92.6,35.6s75-14.7,92.6-35.9c1.6,.3,3.4,.7,5,.9,5.7,1,12.8,2.4,20.2,3.1-19.2,32.2-64.8,54.8-117.8,54.8Zm151.4,125.6c-10.9,3.4-19.9,3.2-27.2-.6s-12.7-11-16-21.7l-.5-1.5c-3.4-10.9-3.1-20.1,1.1-27.8,4.2-7.5,11.5-13,22.2-16.4,8-2.5,14.4-3.3,19.3-2.4l4.9,15.5c-5.1-.3-10.3,.3-15.2,1.8-4.7,1.5-8.1,4-9.9,7.4-1.9,3.4-2.1,7.8-.3,13.1l.7,2.1c1.9,6.2,4.6,10.3,7.9,12.2,3.3,1.9,7.8,2.1,13.3,.3,4.9-1.6,9.5-4.1,13.6-7.3l4.6,14.5c-3.9,4.6-10,8.1-18.5,10.8Zm75.9-34l-31.6-19.4,14.3,28.2-20.1,10.2-43-84.7,20.1-10.2,25,49.4,4.6-34.6,20-10.2-5.5,38,37.5,22.5-21.3,10.8Zm64.6-40.1c-19.2,14.5-35.9,12.5-49.7-6.2l-1-1.4c-6.3-8.5-8.9-16.9-7.8-25.5,1.1-8.6,5.8-16,13.9-22.2,8.9-6.7,17.2-9.1,24.7-7.4,7.5,1.7,14.9,7.3,21.8,16.7l3.5,4.7-33.7,25.4c3.7,3.8,7.2,5.6,10.9,5.4,3.5-.2,7.8-2.2,12.6-5.7,5.6-4.2,10.3-9.6,13.9-15.5l8.3,11.2c-3.2,7.2-9,14.1-17.4,20.5Zm66.4-63.1l-32.7-30.4c-2.1-1.8-3.9-2.7-5.5-2.5s-3.7,1.5-5.8,3.8c-2.4,2.7-4.2,5.8-5.5,9.3l36.5,34-15.4,16.6-50.2-46.8,14.9-16,4.3,4.1,.5-.5c.7-7.9,4.1-15.2,9.6-20.8,9.1-9.8,18.3-10.5,27.4-2.1l37.3,34.6-15.4,16.7Z"/><path class="b" d="M779.17,854.76c-2.2-.6-4.5,0-6.9,1.8-4.5,3.3-4.6,8.4-.4,15.1l14.5-10.9c-2.6-3.4-4.9-5.4-7.2-6Z"/><path class="b" d="M295.9,913.98c-1.6,.6-2.9,1.9-3.6,3.5-2.1,3.9-1.2,6.8,2.6,8.8,2.9,1.5,5.5,1.9,7.5,1.2l5.4-10.3-6.5-2.6c-1.7-.8-3.6-1-5.4-.6Z"/></g><g><g><path d="M543.1,42.89c16.1,0,31.9,4.6,45.6,13,20.4,12.3,33.4,33.8,34.9,57.6,7.1,1.5,13.7,4.3,19.7,8.5,27.9,19.2,29.7,42.6,28.2,54.9-2.5,20.9-17.5,40.6-40.4,54.2,11.5,2.5,22.1,5.6,29.2,13.5,4.6,5,7.8,11.8,11.5,19.6,1.5,3,3.7,7.5,5.3,10.3l2.6,1.1c17.8,7.4,33.4,14.4,41.4,25.2,3.8,4.9,6.2,10.6,7.1,16.7,17.2,8.6,27.8,21.3,30.4,36.4,2.7,15.9,7.3,25.4,15.5,31.7,2.6,2.1,5.4,3.9,8.2,5.6,5,3.2,11.8,7.4,15,16.6,2.7,8,1.1,15.7-.2,22.4-1.1,5.1,.3,9,3.5,16.5,1.6,3.8,3.1,7.7,4.3,11.7,2.6,8.9,1.3,16.9,.2,22.6-.2,1-.5,2.4-.6,3.4,.7,.7,1.4,1.3,2.1,1.8,6.6,5.9,14.2,12.7,19.1,21.8,4.2-3.7,8.9-6.7,13.8-9.4,19.3-10.3,44.1-13,63.8-2.1,23.6,13,19.1,38.8,13.8,61.1-6.2,26.1-15.9,51.5-13,78.7,1,11-16,10.9-17.2,0-1.9-18.8,1.6-37.3,6.3-55.3,2.4-9.3,5.1-18.5,7.3-27.9,2.2-8.8,5.1-19.2,4-28.4-2.1-16-23.3-19.3-36.2-17.8-14.7,1.8-28.1,9.6-38.2,20.4-23.1,24.5-28.1,60-31.3,92-.8,7.3,.2,17.4-3.2,24.1-3.4,6.7-11.2,5.8-17.7,5.9-17.8,.2-35.9,0-53.7,1.3-15.7,1.1-32.5,4.8-44.2,15.9-9.6,9.1-14.7,24.9-7,36.7l33.6,2.4c4.6,.2,8.2,4.1,8.1,8.8-.1,4.8-4.1,8.5-8.8,8.3h-.6l-36.5-2.6c-2.2,1.1-4.7,3.9-6.3,5.4-.2,.2-2.3,2.4-2.5,2.5-1.6,2.5-2.9,5.4-3.5,8.3-4,14.7,4.8,25.8,17.4,32.1l31.3-2.1h.2c4.7-.2,8.7,3.3,8.9,8v.1c.3,4.7-3.3,8.7-8,9l-29.5,1.9c-3.3,4.7-7.2,9.7-8.1,15.2-1.1,7.8,3.9,15,11.4,16.7,10.7,2.4,6.2,18.9-4.6,16.5-12.3-2.9-21.4-13.3-23.6-25.6-1.9-11.1,2.7-19.3,8-27.8-5.4-3.4-10.1-7.9-13.8-13-15.9,1.5-36.5-4.6-43-4.6-7.3,0-13.6,6.1-26.5,4.2-12.9-1.8-26-1.8-37.5,1.5s-26.4,0-26.4,0c0,0-14.9,3.3-26.4,0s-24.6-3.3-37.5-1.5-19.2-4.2-26.4-4.2-31.8,7.5-48.1,3.8c-9.6-2.2-18-4.5-23.3-6.1-7.4-2.1-20.4-2.6-20.4-2.6-17.5-3.8-27.4-13.3-34.4-20-5.9-5.7-7.7-7.1-11.3-7.4-23.3-2.3-31.7-17.7-36.7-27-3.9-7.2-6.5-12-16-16.5-30.8-14.3-29.7-38.9-29.3-50.7,0-.8,.1-1.7,.1-2.6-18.8-12.9-19.3-31.8-19.8-43.3,.1-3.3-.2-6.7-.9-10.1-4.7-17.4,4.1-29.7,8.8-36.4,1.3-1.6,2.4-3.3,3.3-5.1v-.2c-3.9-27.7,11.7-41.5,24.1-52.7,.7-.6,1.4-1.3,2.1-1.8-.1-1-.3-2.4-.6-3.4-1-5.7-2.4-13.6,.2-22.6,1.1-4,2.6-7.9,4.3-11.7,3.1-7.4,4.6-11.3,3.5-16.5-1.4-6.7-3-14.4-.2-22.4,3.2-9.1,9.9-13.4,15-16.5,2.9-1.7,5.6-3.5,8.2-5.6,8.1-6.3,12.8-15.7,15.5-31.7,2.5-15.1,13.3-27.8,30.4-36.4,.9-6.1,3.3-11.8,7-16.7,8-10.7,23.4-17.7,41.4-25l2.6-1.1c1.6-2.6,3.8-7.3,5.3-10.3,3.7-7.8,6.9-14.5,11.4-19.6,8.3-9.3,21.4-12,35.3-14.9l4.1-.9c-16.4-13.9-24.8-30.8-24.5-49.5,.3-16.9,7.3-32.9,19.6-44.5,12.1-11.5,28.1-18,44.8-17.8,1,0,2.2,.1,3.2,.1,.8-2.9,1.8-5.8,3.4-8.7,15-38.4,52.8-65.4,92.6-65.4Z"/><g><g><g><path class="b" d="M577.5,195.99h-144.4c-12.6,0-22.8-10.2-22.8-22.8v-8.7c0-12.6,10.2-22.8,22.8-22.8h144.4c12.6,0,22.8,10.2,22.8,22.8v8.7c.1,12.6-10.1,22.8-22.8,22.8Z"/><path class="b" d="M459.5,195.79l-12.9,.8c-.1,0-.2,.1-.2,.2v.1c0,.1,.1,.2,.2,.2l12.9-.8c.1,0,.2-.1,.2-.2v-.1c0-.1-.1-.2-.2-.2Z"/></g><path class="b" d="M535.4,196.49l-20.6,.4c-.3,0-.5-.2-.5-.5h0c0-.3,.2-.5,.5-.5l20.6-.4c.3,0,.5,.2,.5,.5h0c0,.3-.2,.5-.5,.5Z"/></g><g><path class="b" d="M741.2,611.99H269.2c-6.4,0-11.6-5.2-11.6-11.6v-168.2c0-6.4,5.2-11.6,11.6-11.6h472c6.4,0,11.6,5.2,11.6,11.6v168.2c0,6.4-5.2,11.6-11.6,11.6Z"/><g><path d="M556.6,218.59c-18.4-3.3-47,2.9-47,2.9,0,0-28.5-6.1-47-2.9s-34.5,22-45.4,26.1-33.6,5.7-39.4,12.2c-5.8,6.5-13.4,30.2-20.1,33.4s-32.7,12.2-39.4,21.2,0,17-6.7,19.6c-6.7,2.5-24.4,9.8-26.9,24.5-2.5,14.6-7.7,32.6-23.6,44.8s-18.5,7.3-15.1,23.7c3.4,16.4-5,27-8.3,38.3s7.5,23.6-5,35c-12.6,11.4-22.6,18.8-20.1,36.7,2.5,18-16.8,23.6-12.6,39.1s-3.1,32.7,14.5,43-7.5,35.3,23.9,50.1c31.4,14.8,21.4,39.2,46,41.6s24.6,27.4,56.7,28.7c9.7,.5,14.1,1.6,15.4,3.7l.2-.2s10.4,7.7,18.3,8.1,39.7-9.6,47.8-4.1c8.1,5.5,14.9,3.2,21.6,4.1,6.7,.9,33.7-7.4,40.5,0,3.8,4.1,11.2,3,17,1.3,5.5-1.7,11.3-1.7,16.8,0,5.8,1.8,13.3,2.9,17-1.3,6.6-7.4,33.6,.9,40.4,0,6.7-.9,13.4,1.4,21.6-4.1,6.2-4.2,25.8,.5,38.4,2.9-.9-6.4-.2-13,1.8-19.2,3.2-8.5,8.5-15.9,15.3-21.7-10.7-23.2,2.4-50.3,25-62.9,15.1-8.5,32.4-10.9,49.4-11.7,8.9-.3,18-.5,26.9-.6,7-.1,15.9,.9,23.4,0,1.1-6.4,.9-13.6,1.6-19.7,.8-7.1,1.6-14.2,2.7-21.3,2.1-14.5,5.9-28.7,11.4-42.3,3.5-8.5,8-16.6,13.3-24-2.1-10.9-10.3-17.3-20.1-26.2-12.6-11.3-1.7-23.6-5-35s-11.8-22-8.3-38.3c3.4-16.4,.9-11.4-15.1-23.7s-21-30.2-23.6-44.8c-2.5-14.6-20.1-22.1-26.9-24.5-6.7-2.4-.1-10.6-6.7-19.6s-32.8-18-39.4-21.2-14.3-26.9-20.1-33.4c-5.9-6.5-28.7-8.1-39.7-12.2-10.9-4.1-26.9-22.8-45.4-26.1Zm185.3,200.9c5.9,0,10.9,4.8,10.9,10.9v64c0,41.6-22.2,80-58.2,100.8-55.7,32.2-126.9,13.1-159.2-42.5-7.5,5-16.5,7.8-25.6,7.7-12,.1-23.6-4.6-32.1-12.9-19.9,38.9-59.8,63.2-103.5,63.3-64.3,.1-116.5-51.9-116.6-116.3v-64c0-5.9,4.8-10.9,10.9-10.9h262.3l211.1-.1Z"/><path d="M556.1,530.69c13.8,31.2,43.6,54,79.3,55.7,1.4,.1,2.7,.1,4.1,.1,50.9,.1,92.2-41,92.3-91.9v-32.7c0-9.8-7.9-17.7-17.7-17.7h-148.6c-9.8,0-17.7,7.9-17.7,17.7v29.7c0,13.3,2.7,26.4,8,38.5,.1,.2,.1,.3,.3,.6Z"/><path class="b" d="M582,451.59h61.1s-67,95-16.2,129.3c-.1,.1-85-23.2-44.9-129.3Z"/><path d="M525.5,458.39h-29.4v36.1c0,12.1-1.9,24.1-5.6,35.7,5.6,8.3,15,13.5,25,13.5,6.5,0,12.9-2.2,18.1-6.2-5.4-13.7-8.1-28.2-8.1-43v-36.1Z"/><path d="M403.9,177.69c-.2,16.7,11,29.4,24,38.3,9.5-7.1,21.8-15.5,36.5-18.3-1.4-11.8-2.1-29.2,3.4-45.2,.6,15.2,4.6,30.2,11.7,43.8h1.7c11.5,.2,23.1,1.4,34.4,3.4,4.5-.8,12-2.1,20.5-2.7,7.9-13.3,25.6-39,50.3-48.3,0,0-24.6,24.5-30.1,47.9,3.3,.2,6.6,.6,9.9,1.1,16.4,2.9,29.8,13,39.7,20.5l.9,.7,.5-.1c43.7-16.8,64-55.7,26.8-81.4-9.8-6.6-21-7.1-32.5-4,9.9-23-.5-48.7-21.3-61.5-40.2-24.8-91.5,.2-107.1,42.1-3.2,8.6-5.5,17.3-6.7,26.1-31.2-13.3-62.1,7.9-62.6,37.6Z"/><path d="M454,444.19h-148.6c-9.8,0-17.7,7.9-17.7,17.7v29.7c0,49.6,38,92.5,87.6,94.8,1.5,.1,2.9,.1,4.2,.1,50.8,0,92-41.2,92.2-92v-32.6c0-9.8-7.9-17.7-17.7-17.7Z"/><path class="b" d="M363.4,580.99s-85-23.2-44.8-129.3h61.1c-.1-.1-67.1,95-16.3,129.3Z"/></g></g></g></g><g><g><path d="M665.66,724.5l.39-.38"/><path d="M669.98,726.11l.39-.38c.35-.33,.55-.73,.59-1.19,.15-.43,.12-.85-.09-1.28-.19-.46-.49-.82-.89-1.09-.4-.38-.87-.66-1.4-.82l-1.19-.32c-.89-.15-1.77-.15-2.66,0l-1.19,.32c-.69,.24-1.29,.63-1.79,1.15l-.39,.38c-.35,.33-.55,.73-.59,1.19-.15,.43-.12,.85,.09,1.28,.19,.46,.49,.82,.89,1.09,.4,.38,.87,.66,1.4,.82l1.19,.32c.89,.15,1.77,.15,2.66,0l1.19-.32c.69-.24,1.29-.63,1.79-1.15h0Z"/></g><path d="M666.04,726.56c6.12,0,6.15-6.4,0-6.4s-6.15,6.4,0,6.4h0Z"/><g><path d="M713.75,707.11c3.02,3.8,2.11,10.01-1.88,12.81"/><path d="M709.43,708.73c1.84,2.52,1.45,6.98-1.1,8.93-4.79,3.67,3.79,7.04,7.07,4.53,5.39-4.13,6.72-11.11,2.66-16.69-2.35-3.22-11.8-1.12-8.63,3.23h0Z"/></g><g><path d="M670.67,723.94c9.45,.15,18.9-.29,28.34-.73,4.79-.22,9.78-.5,13.95-2.83"/><path d="M670.67,727.14c8.51,.1,17.01-.21,25.51-.6,7.13-.32,13.83-.68,20.32-3.9,2.1-1.04,1.56-3.36,0-4.53-2.02-1.51-5.01-1.03-7.07,0-5.5,2.73-12.95,2.03-18.91,2.27-6.61,.27-13.22,.43-19.84,.35-6.13-.07-6.14,6.33,0,6.4h0Z"/></g><g><path d="M855.89,637.12c-25.51,35.85-59.59,65.75-98.69,86.61l13.61-39.48c-8.04-3.9-17.56,1.21-24.22,7.1-10.11,8.94-18.56,22.33-14.65,35.14,6.22-8.08,7.37-19.64,2.88-28.76-6.46,4.68-10.15,12.81-9.38,20.66-.85-5.62-2.28-11.15-4.25-16.49,2.49,6.62,3.76,13.68,3.72,20.74l-2-3.75c-.48,2.49-.51,5.18,.64,7.45s3.7,3.98,6.24,3.57c2.17-.35,3.8-2.06,5.27-3.67,11.96-13.16,24.27-26.94,29.24-43.9-12.82,7.13-22.14,20.06-24.75,34.32-.24,1.33-.3,2.98,.84,3.73,1.41,.92,3.21-.36,4.35-1.6,6.64-7.29,11.34-16.28,13.49-25.84-10.51,.18-20.37,8.12-22.62,18.22-.26,1.18-.35,2.61,.58,3.39,1.09,.91,2.75,.32,4.02-.33,21.9-11.16,41.45-26.77,57.05-45.57-18.01,6.37-34.56,16.7-48.08,30.02-4.53,4.46-8.89,11.51-5.01,16.53,19.03-3.38,36.69-12.08,53.05-22.24,7.58-4.71,15.49-10.49,17.68-19.05-20.78-1.6-40.95,6.82-59.39,16.4,16.36-1.79,32.19-8.09,45.22-18-12.59,7.67-24.78,15.98-36.5,24.89,19.61-9.11,37.69-21.41,53.27-36.26-16.77,18.28-34.96,35.3-54.36,50.85,12.18-8.16,23.65-17.34,34.25-27.4l-34.71,25.4,37.29-29.32c-12.56,6.4-24.55,13.86-35.78,22.32,19.3-7.18,37.44-17.4,53.5-30.16-15.65,12.54-30.89,25.58-45.69,39.08,6.13-5.78,12-11.83,17.57-18.12-7.44,7.27-15.68,13.75-24.53,19.29,26.29-13.85,50.8-31.59,69.71-54.29l-52.47,39.58c15.03-8.1,30.13-16.25,43.68-26.58-25.3,11.55-48.92,26.32-72.45,41.04l-19.48,12.19,30.19-14.55-20.19,12.3c2.53,1.75,5.8,2.45,8.84,1.88-5.57,.55-11.06,1.83-16.28,3.82l28.25-.37c-11.08,2.24-21.93,5.56-32.34,9.89,9.87,1.68,19.98,1.94,29.92,.76-9.1-1.18-18.27-1.83-27.45-1.96-.44,.6,1.21,.59,1.02-.14s-1.16-.86-1.91-.84l-18.19,.33c6.43,.11,12.86-.46,19.16-1.71l-23.91,.04c6.49-.86,12.79-3.12,18.34-6.56-5.44-1.07-11.11-.98-16.51,.27l12.9-2.84c-5.59-.18-11.21,.23-16.71,1.21l5.46-.68c-14.93,4.8-30.89,6.49-46.51,4.93l33.05-1.71-37.52,5.74c16.01,3.41,32.5,4.66,48.85,3.71-10.47-.46-20.98,.21-31.3,2,10.6-.66,21.14-2.12,31.51-4.36-8.73-.83-17.57-.62-26.24,.64,9.95,1.45,20.25,.45,29.72-2.89l-14.27-2.34,12.7,.77c-7.78-1.12-16,1.09-22.11,5.96-4.68-.27-9.38-.13-14.03,.42,.61,1.53,2.54,2.41,4.12,1.88-.05-.78-1.41-.74-1.71-.02s.12,1.52,.61,2.13c2.9,3.61,8.71,4.52,12.61,1.98,0-3-5.03-4.14-6.58-1.56s1.4,6.29,4.38,5.68,4.36-4.73,2.55-7.14c-1.69-1.64-4.94-.41-5.64,1.82s.64,4.7,2.59,6.03,4.37,1.77,6.73,2.08c5.38,.72,10.82,.96,16.25,.73,1.98-.08,4.45-.63,4.85-2.53,.18-.85-.15-1.73-.56-2.49-3.9-7.19-14.02-7.66-22.29-7.18-1.03,.06-2.21,.2-2.79,1.04-1.09,1.57,.97,3.41,2.73,4.18,3.81,1.66,8.11,3.01,12.1,1.81s7.03-5.98,4.95-9.54c-1.95-1.6-5.08,1.09-4.61,3.55s2.92,4.03,5.29,4.95c4.07,1.59,8.54,2.16,12.89,1.63-8.1-5.23-19.34-5.25-27.46-.05,9.24,4.82,20.41,5.94,30.45,3.04-10.04-6.49-23.07-5.7-35-4.3-2.48,.29-5.59,1.2-5.81,3.65-.28,3.13,4.46,4.09,7.36,2.79-4.69-4.89-11.76-7.47-18.56-6.78,5.59,4.71,13.93,5.99,20.71,3.17-2.13-3.41-7.65-4.07-10.55-1.26,3.83,2.58,8.79,3.48,13.31,2.42-1.5-2.01-4.97-2.11-6.59-.19,2.12,3.17,6.73,3.32,10.56,2.88,16.71-1.92,32.79-8.8,45.61-19.52-11.53-2.09-23.9,.76-33.28,7.68,9.69,4.52,20.68,6.29,31.33,5.02,5.19-.62,11.46-3.31,11.41-8.46-11.33-2.56-23.44-1.64-34.24,2.6,.83,3.53,3.96,6.41,7.59,7s7.53-1.18,9.45-4.26c-19.82-1.06-39.82,1.02-58.98,6.15,1.53,5.73,7.41,10.03,13.42,9.81l-6.04,.85c-.47,1.71,2.02,2.59,3.82,2.63,25.25,.6,50.53-.12,75.7-2.16-22.63-5.29-46.26-6.45-69.31-3.4,19.34,3.32,39.14,2.27,58.74,1.21l-32.68-5.96c13.41-6.18,28.09-9.07,42.62-11.9-12.49-1.75-25.53,.54-36.63,6.44,9.81,6.35,23.86,5.47,32.77-2.05-.15-2.6-4.08-3.73-6.03-1.97s-1.7,5.09,.03,7.06,4.5,2.76,7.15,2.84c8.18,.25,15.66-5.6,19.14-12.89,3.48-7.29,3.57-15.73,2.42-23.71-.51-3.56-1.34-7.26-3.72-9.99-4.48-5.15-12.68-4.99-19.23-2.92-7.1,2.24-13.61,6.23-18.8,11.5-1.17,1.19-2.31,2.52-2.65,4.13-.77,3.68,2.91,6.84,6.53,8.04,8.42,2.79,17.85-.22,25.15-5.21,6.27-4.29,11.5-10.03,15.15-16.63-8.25,5.13-14.81,12.85-18.48,21.74-.6,1.46-1.13,3.1-.56,4.57,1.25,3.2,6.14,2.64,9.04,.74,4.04-2.65,7.06-6.78,8.32-11.4,.44-1.62,.65-3.44-.22-4.89-1.27-2.11-4.2-2.49-6.68-2.31-10.66,.76-20.59,7.88-24.6,17.63-.95,2.32-1.59,4.88-.98,7.31s2.79,4.6,5.33,4.54c1.43-.03,2.75-.74,3.97-1.49,11.77-7.21,19.75-20.1,20.87-33.7-13.57,4.68-23.79,17.58-25.1,31.67-.37,3.98,.87,9.12,4.88,9.7,1.47,.21,2.95-.3,4.3-.89,6.57-2.87,12.15-7.9,15.61-14.1,.78-1.4,1.48-2.94,1.3-4.52-.27-2.46-2.65-4.3-5.13-4.7s-5,.35-7.3,1.32c-3.8,1.59-7.49,3.96-9.39,7.57s-1.41,8.65,1.94,11.02c3.69,2.62,8.99,1.06,12.62-1.64,1.51-1.13,2.96-2.55,3.38-4.37s-.56-4.06-2.43-4.42c-1.09-.21-2.2,.24-3.2,.72-5.29,2.56-9.91,6.44-13.32,11.17,3.27,3.93,8.94,5.76,13.94,4.49s9.07-5.56,10.01-10.55c-6.05,0-12.05,2.71-16.01,7.21,1.26,3.05,5.35,4.61,8.37,3.18s4.34-5.54,2.7-8.42c-2.63-4.61-9.8-3.86-14.32-1.01-1.23,.78-2.53,1.97-2.29,3.38,.14,.82,.79,1.47,1.44,2,2.64,2.13,6.05,3.32,9.47,3.28-1.22-3.9-2.95-7.91-6.32-10.31s-8.77-2.4-11.13,.96c-2.14,3.04-.75,7.64,2.38,9.7s7.38,1.89,10.8,.35c2.82-1.27,5.27-5.24,2.77-7.05-.61-.44-1.38-.6-2.12-.75-5.02-1.01-10.31-2.01-15.2-.5s-9.11,6.43-7.87,11.33c1.22,4.85,7.18,7.28,12.19,6.44s9.22-4.03,13.2-7.12c-.91-1.38-2.83-2.02-4.41-1.47,2.82,1.94,5.89,3.95,9.33,3.94s7.05-3.1,6.15-6.37c-.79-2.86-4.28-4.03-7.29-4.22-9.17-.6-18.52,3.83-23.76,11.26-1.02,1.44-1.83,3.56-.57,4.8,.67,.66,1.7,.79,2.65,.8,4.31,.05,8.62-1.64,11.72-4.59-.81-1.25-1.7-2.58-3.09-3.14s-3.38,.12-3.55,1.59c-.15,1.37,1.24,2.39,2.49,3,7.1,3.49,15.58,4.13,23.14,1.77,2.16-.67,4.68-2.65,3.61-4.61-2.25,.39-4.38,1.43-6.06,2.94,6.12,.83,11.04-4.68,14.58-9.66,7.8-10.98,15.45-23.19,15.08-36.58-5.21,7.55-8.55,16.34-9.66,25.4"/><path d="M851.58,635.51c-25.62,35.77-59.15,65.14-97.91,85.96l8.36,3.11,13.61-39.48c.61-1.77-.81-3-2.3-3.61-12.75-5.31-25.73,2.45-34.48,11.52-8.88,9.21-15.21,21.4-11.73,34.34,.84,3.11,7.51,3.02,9.14,.76,6.67-9.23,8.15-20.77,3.38-31.23-1.24-2.71-6.2-3.09-8.36-1.41-7.21,5.61-11.42,13.68-10.84,22.92h10c-.97-5.92-2.41-11.68-4.42-17.34l-9.64,1.7c2.32,6.48,3.47,13.01,3.54,19.89l9.82-.85-2-3.75c-1.75-3.3-9.19-3.34-9.82,.85-1.01,6.71,2.04,13.14,9.28,14.14s11.68-4.59,16.11-9.53c10.71-11.96,21.02-24.75,25.82-40.32,1.36-4.41-6.02-4.46-8.36-3.11-7.32,4.22-13.57,9.96-18.27,16.99-2.26,3.38-4.16,6.98-5.58,10.8-1.16,3.14-3.06,7.87-2.38,11.3,.64,3.21,3.9,4.73,6.97,4.73,3.95,0,6.78-2.5,9.16-5.36,6.01-7.2,10.19-15.64,12.38-24.74,.66-2.75-2.46-4.17-4.82-4.05-10.05,.5-19.58,5.23-24.81,14.08-1.86,3.15-4.76,9.13-1.54,12.34,3.75,3.75,9.44,1.59,13.37-.45,21.56-11.2,40.76-26.85,56.35-45.45,3.27-3.9-4.47-5.24-6.84-4.38-13.54,4.89-26.38,11.74-37.75,20.59-7.53,5.86-24.85,18.18-17.64,29.57,1.28,2.03,3.85,2.66,6.15,2.24,15.52-2.89,30.1-8.84,43.9-16.41,11.39-6.25,26.32-13.68,30.32-27.11,.87-2.92-2.65-3.91-4.82-4.05-22.42-1.42-43.39,7.25-62.92,17.34-1.58,.81-1.78,2.58-.78,3.88,1.22,1.59,3.87,1.68,5.65,1.47,17.19-2.05,33.54-8.47,47.43-18.83,4.96-3.7-3.74-6.56-7.07-4.53-12.58,7.69-24.75,15.99-36.5,24.89-4.56,3.45,2.86,6.53,6.06,5.03,20.27-9.53,38.77-22.02,55.06-37.41l-8.63-3.23c-16.6,18.03-34.48,34.83-53.58,50.2-4.78,3.85,3.75,6.77,7.07,4.53,12.43-8.39,24.12-17.77,35.04-28.05,3.73-3.51-5.3-5.74-7.85-3.88l-34.71,25.4,7.07,4.53,37.29-29.32c5.04-3.96-3.82-6.2-7.07-4.53-12.54,6.45-24.49,13.88-35.78,22.32-4.73,3.54,2.95,6.2,6.06,5.03,19.64-7.4,38.01-17.68,54.51-30.66l-7.07-4.53c-15.9,12.76-31.4,26-46.47,39.73l8.63,3.23c6.11-5.8,11.97-11.83,17.57-18.12,3.62-4.06-5.92-5.85-8.63-3.23-7.28,7.03-15.2,13.22-23.75,18.64-1.93,1.23-1.7,3.26,0,4.53,1.98,1.48,5.05,1.07,7.07,0,26.49-14.04,51.1-31.89,70.49-54.93,3.39-4.02-5.34-5.78-7.85-3.88l-52.47,39.58c-5.06,3.82,3.79,6.29,7.07,4.53,15.02-8.1,30.02-16.28,43.68-26.58,4.58-3.45-2.87-6.49-6.06-5.03-32.57,14.98-62.61,34.76-92.94,53.73-4.81,3.01,2.9,6.55,6.06,5.03l30.19-14.55-6.06-5.03-20.19,12.3c-1.82,1.11-1.88,3.4,0,4.53,4.35,2.59,8.72,3.29,13.71,2.71,1.94-.23,4.18-1.78,3.49-3.94-.72-2.28-4.32-2.44-6.15-2.24-6,.68-11.8,2.08-17.48,4.14-4.94,1.79-1.17,6.01,2.52,5.96l28.25-.37-1.33-6.29c-11.48,2.38-22.68,5.77-33.53,10.22-3.8,1.56-2.42,5.26,1.19,5.85,10.84,1.75,21.67,1.96,32.58,.76,4.58-.5,4.52-5.61,0-6.17-9.56-1.2-19.15-1.9-28.78-2.07-2.26-.04-5.6,1.25-4.82,4.05l.11,.39c.46,1.67,3.36,2.44,4.82,2.35,2.57-.16,4.41-.55,5.73-2.88,.41-.72,.06-1.93-.5-2.47-2.88-2.7-6.1-2.43-9.87-2.36l-14.55,.26c-6.11,.11-6.16,6.36,0,6.4,6.89,.05,13.72-.56,20.49-1.83,5.58-1.04,3.64-6.29-1.33-6.29l-23.91,.04,1.33,6.29c7.34-1.11,14.17-3.58,20.54-7.38,3.24-1.93,.37-4.9-2.21-5.35-6.43-1.11-12.78-1.05-19.17,.27l2.66,6.17,12.9-2.84c5.54-1.22,3.66-6.19-1.33-6.29-6.06-.12-12.06,.33-18.04,1.32-1.92,.32-4.2,1.72-3.49,3.94s4.32,2.46,6.15,2.24l5.46-.68-3.85-5.85c-13.78,4.31-28.27,5.93-42.66,4.61l-1.33,6.29,33.05-1.71-1.33-6.29-37.52,5.74c-4.69,.72-4.38,5.26,0,6.17,16.51,3.43,33.35,4.72,50.18,3.83,6.09-.32,6.17-6.17,0-6.4-10.94-.41-21.84,.32-32.63,2.12-5.49,.92-3.72,6.62,1.33,6.29,11.06-.74,22-2.19,32.84-4.48,4.2-.89,4.86-5.75,0-6.17-9.69-.84-19.26-.67-28.9,.64-4.53,.62-4.56,5.57,0,6.17,11.42,1.5,22.65,.46,33.57-3.21,4.02-1.35,2.23-5.29-1.19-5.85l-14.27-2.34-1.33,6.29,12.7,.77c4.86,.3,7.05-5.63,1.33-6.29-9.65-1.11-19.13,.9-26.98,6.78l3.54-.94c-5.15-.24-10.24-.02-15.36,.53-2.53,.27-4.55,2.36-2.99,4.7,2.21,3.31,6.09,3.79,9.77,3.35,2.33-.28,4.78-2.4,2.99-4.7-3.96-5.09-14.97-.51-9.31,5.8,5.01,5.58,13.89,5.54,20.03,2.17,.62-.34,1.62-1.44,1.46-2.26-1.35-7.11-14.67-9.01-16.78-1.4-2.46,8.87,12.13,11.15,16.49,5.25,5.98-8.09-6.28-13.78-12.53-8.81-3.26,2.59-3.3,6.78-.71,9.92,3.16,3.84,8.35,4.72,13.03,5.26,5.16,.59,26.92,3.89,25.58-6.39-1.17-8.92-14-11.34-21.03-11.67-3.7-.18-9.02-.63-12.34,1.42s-2.84,5.62-.06,7.98c6.88,5.82,21.38,7.01,26.74-1.37,2.33-3.64,2.16-8.89-2.49-10.47-3.72-1.26-8.9,.06-10.69,3.84-2.16,4.57,2.31,8.4,6.03,10.11,5.65,2.6,11.81,3.01,17.92,2.47,2.73-.24,5.29-3.5,2.21-5.35-10.65-6.38-23.86-6.39-34.53-.05-1.73,1.03-2,3.54,0,4.53,11.04,5.47,23.33,7.05,35.31,3.86,2.41-.64,5.58-3.3,2.21-5.35-11.88-7.21-27.77-7.61-41.14-4.92-4.08,.82-10.31,4.05-7.55,9.15,2.57,4.72,9.97,4.39,14.23,2.94,1.71-.58,3.51-2.72,1.79-4.38-6.18-5.97-14.3-8.92-22.88-8.36-2.99,.2-7.12,2.68-3.54,5.46,7.61,5.91,17.84,6.98,26.77,3.67,1.92-.71,3.24-2.53,1.79-4.38-4.23-5.41-13.09-6.08-18.41-1.91-1.63,1.28-2.05,3.28,0,4.53,5.59,3.38,11.76,4.43,18.17,3.24,1.9-.35,5.23-2.48,2.99-4.7-4.24-4.2-10.85-4.04-15.22-.19-1.01,.88-.77,2.32,0,3.23,6.98,8.31,21.85,3.9,30.58,1.46,12.23-3.42,23.63-9.41,33.44-17.45,2.71-2.22,.83-4.86-2.21-5.35-13.38-2.16-27.03,.64-38.14,8.51-2.46,1.74-1.34,3.97,1.01,5.03,10.27,4.6,21.52,6.56,32.74,5.58,7.15-.62,16.81-3.29,17.52-11.78,.15-1.83-2.3-2.8-3.67-3.09-12.78-2.68-25.87-1.66-38.09,2.93-1.55,.58-2.86,1.88-2.3,3.61,3.56,11.08,19.55,12.46,26.18,3.5,2.24-3.03-1.85-4.7-4.32-4.82-20.32-.98-40.63,1.11-60.31,6.26-1.84,.48-4.27,1.58-3.49,3.94,2.61,7.91,10.25,12,18.25,12.15l-1.33-6.29-6.04,.85c-1.43,.2-3.76,1.31-3.67,3.09,.27,5.66,7.54,5.81,11.74,5.9,8.09,.16,16.19,.19,24.28,.07,16.19-.23,32.37-1.01,48.51-2.3,4.71-.38,7.14-4.96,1.33-6.29-23.64-5.41-47.93-6.46-71.97-3.4-4.64,.59-4.45,5.44,0,6.17,19.91,3.27,40.02,2.41,60.07,1.33,4.68-.25,7.2-5.21,1.33-6.29l-32.68-5.96,1.19,5.85c13.21-5.93,27.29-8.82,41.42-11.58,4.34-.85,4.74-5.58,0-6.17-14.46-1.81-28.52,.61-41.49,7.26-1.96,1-1.76,3.46,0,4.53,12.18,7.38,28.57,6.91,39.84-2.05,1.13-.89,1.64-1.67,1.29-3.11-1.49-6.06-11.27-6.57-15.17-2.74-6.02,5.93,1.57,13.03,7.52,14.26,17.85,3.71,30.54-12.75,31.16-28.97,.3-7.73-.27-18.28-6.75-23.6-5.97-4.9-14.66-4.96-21.82-3.17-8.42,2.11-16.4,6.69-22.55,12.8-6.42,6.37-3.67,13.69,4.43,16.84,19.11,7.44,39.22-7.67,48.32-23.48,2.32-4.03-6.49-4.32-8.36-3.11-6.15,3.97-11.43,8.99-15.46,15.13-2.97,4.53-8.64,13.15-2.27,17.31,10.26,6.7,27.58-7.34,24.74-18.69-1.63-6.55-10.24-6.67-15.55-5.86-6.88,1.05-13.31,4.26-18.42,8.95-4.54,4.16-9.21,10.9-8.9,17.36s7.21,10.25,13.27,8.86c7.49-1.71,14.52-9.23,18.74-15.27,4.76-6.81,7.54-14.52,8.37-22.77,.34-3.38-5.61-3.47-7.52-2.76-14.21,5.23-25.44,17.77-27.41,33.03-.9,6.96,2,13.77,9.72,14.3,7.29,.5,15.09-5.34,19.76-10.43s10.12-13.55,2.23-18.4c-6.6-4.06-15.69-1.04-21.52,3.06-5.5,3.86-9.54,10.95-5.63,17.41s13.38,6.32,19.51,3.33c3.28-1.6,7.49-4.51,7.98-8.48,.42-3.35-1.77-6.18-4.9-7.18-8.74-2.79-18.64,6.8-23.36,13.04-.78,1.03-.95,2.21,0,3.23,9.59,10.29,29.43,7.98,33.09-6.83,.69-2.77-2.48-4.14-4.82-4.05-7.84,.3-14.88,3.05-20.32,8.8-.55,.58-.93,1.7-.5,2.47,3.41,6.12,12.57,8.23,18.16,3.61s3.39-12.87-3.26-15.29c-5.74-2.09-16.27-.72-19.73,5.02-4.66,7.74,10.15,11.24,15.02,11.44,2.14,.09,5.73-1.3,4.82-4.05-1.81-5.47-4.65-10.82-10.26-13.11-4.75-1.94-11.16-1.78-15.14,1.77-3.66,3.26-3.65,8.74-.62,12.46,3.49,4.27,9.66,5.39,14.86,4.52,4.34-.72,10.29-3.35,10.8-8.44,.6-6.05-7.62-6.86-11.84-7.44-6.11-.84-12.81-.74-18.14,2.77-4.15,2.73-7.53,7.77-5.99,12.91,1.73,5.79,8.22,8.57,13.79,8.88,7.69,.44,14.1-3.64,19.96-8.15,1.25-.96,2.08-2.53,.78-3.88-2.75-2.87-6.23-3.55-10.06-2.94-2.76,.44-5.24,3.3-2.21,5.35,4.43,2.99,9.32,5.5,14.84,4.7,3.84-.56,8.19-2.94,9.08-7.01,2.31-10.58-15.07-10.38-21.11-9.06-4.72,1.03-9.32,3.06-13.15,6.01-3.07,2.37-7.99,6.5-7.84,10.82,.18,4.92,5.92,5.85,9.84,5.63,5.52-.3,10.28-2.55,14.42-6.12,1.08-.93,.66-2.26,0-3.23-2.96-4.34-9.47-7-14.07-3.14-5.1,4.28,1.54,8.48,5.41,9.99,6.2,2.42,13.12,3.14,19.7,2.19,4.33-.63,13.52-2.63,12.24-8.8-.56-2.69-3.86-3.66-6.33-3.09-3.1,.72-5.77,1.76-8.27,3.76-3.52,2.82,.51,5.29,3.54,5.46,11.16,.66,17.54-8.96,23-17.22,6.43-9.74,11.7-20.3,11.66-32.22-.01-3.78-7.6-4.19-9.32-1.62-5.52,8.28-8.98,17.15-10.34,27.02-.57,4.13,9.39,4.39,10,0,1.18-8.52,4.2-16.62,8.98-23.79l-9.32-1.62c.03,9.11-3.31,17.33-7.88,25.08-3.03,5.14-9.59,18.39-16.78,17.97l3.54,5.46c1.22-.98,2.3-1.75,3.85-2.12l-6.33-3.09c.69,3.36-8.95,2.86-10.71,2.66s-14.21-4.05-11.21,.34v-3.23c-.16,.14-5.43,3.34-5.52,2.84-.1-.56,1.71-2.37,2.25-2.98,2.38-2.69,5.48-4.75,8.83-6.01,2.4-.91,6.93-2.26,9.46-1.04,1.51,.73,2.74,2.82,.3,3.8-1.34,.54-4.54-2.1-5.69-2.88l-2.21,5.35h-1.23l.78-3.87c-3.8,2.93-11.26,9.59-15.82,4.5-1.96-2.19-1.37-5.31,.35-7.42,2.32-2.85,5.79-3.21,9.23-2.9,1.36,.12,3.19,.22,4.45,.69,1.69,.63,1.84-.03,.47,1.46-2.27,2.49-6,1.73-7.07-1.51-.87-2.62,.68-5.35,3.38-3.66s4.06,5.96,5.03,8.89l4.82-4.05c-1.29-.05-6.27-.7-5.09-3.21,.35-.75,3.15-1.39,3.78-1.35,1.56,.1,2.37,.66,2.7,2.42,.3,1.6-.35,4.9-1.94,2.06l-.5,2.47c3.17-3.34,7.03-5.45,11.69-5.63l-4.82-4.05c-1.81,7.31-8.97,11.58-14.82,5.3v3.23c1.45-1.91,2.98-3.73,4.76-5.34,1.23-1.11,5.52-3.04,6.35-4.45-1.1-.84-1.68-.65-1.74,.56-.09,.7-.42,1.24-1.01,1.62-.82,.93-2.56,2.11-3.71,2.35-3.13,.64-4.19-2.05-4.05-4.68,.24-4.42,5.79-9.69,10.34-9.72,6.62-.05-2.6,10.72-4.7,12.59-1.75,1.56-4.09,3.43-6.31,4.23-1.61,.57-.53,.95-1.57,.27-.8-.53-.89-2.52-.98-3.4-.42-4.18,1.03-8.74,2.68-12.51,3.82-8.75,11.01-15.58,19.96-18.87l-7.52-2.76c-1.01,10.08-5.57,19.5-12.93,26.5-.76,.72-5.43,5.33-6.47,4.95-2.23-.82-.46-5.96,.05-7.25,1.78-4.52,5.13-8.45,9.12-11.18,2.16-1.48,11.66-6.82,12.94-2.61,1.02,3.33-4.6,11.28-7.81,11.92-.85,.17-.23-.59,.45-2.46,.34-.94,.81-1.87,1.26-2.77,1.22-2.46,2.66-4.79,4.33-6.97,3.24-4.23,7.15-7.71,11.61-10.59l-8.36-3.11c-5.56,9.67-15.99,20.08-27.86,20.55-2.48,.1-6.66-.23-8.21-2.56-2.35-3.52,1.58-6.6,4.17-8.72,4.43-3.63,9.76-6.59,15.37-7.89s10.46-.25,12.68,5.36c2.15,5.42,2.25,12.43,1.68,18.15s-2.77,11.93-7.21,16.1c-1.91,1.79-4.29,3.4-6.87,4.03-1.25,.31-3.08,.55-4.31,.02l-1.44-.98c-.07-1.94-1.12-2.81-3.14-2.61l1.29-3.11c-7.54,5.98-17.34,7.11-25.7,2.05v4.53c9.8-5.03,20.83-6.99,31.76-5.62v-6.17c-14.91,2.91-29.88,5.97-43.81,12.22-3.74,1.68-2.47,5.18,1.19,5.85l32.68,5.96,1.33-6.29c-19.15,1.03-38.4,2.02-57.41-1.1v6.17c22.29-2.84,44.76-1.61,66.65,3.4l1.33-6.29c-12.59,1-25.2,1.71-37.82,2.07-3.23,.09-36.72,.38-36.7,.66l-3.67,3.09,6.04-.85c5.72-.8,3.51-6.19-1.33-6.29-4.42-.09-7.31-3.55-8.6-7.46l-3.49,3.94c18.87-4.94,38.16-6.97,57.65-6.03l-4.32-4.82c-3.11,4.2-6.44,2.58-7.9-1.97l-2.3,3.61c9.87-3.7,20.08-4.44,30.38-2.28l-3.67-3.09c-.51,6.08-10.22,5.73-14.43,5.64-7.25-.16-14.19-2.01-20.78-4.96l1.01,5.03c8.39-5.94,18.22-8.5,28.41-6.86l-2.21-5.35c-7.08,5.8-14.89,10.54-23.45,13.82-4.33,1.66-8.77,2.96-13.32,3.85-3.25,.64-9.07,2.58-11.55-.38v3.23l-2.05,.19,2.99-4.7c-3.18,.59-5.71,.06-8.44-1.6v4.53c1.32-1.03,1.71-.66,2.7,.61l1.79-4.38c-5.32,1.97-10.25,.75-14.65-2.67l-3.54,5.46c5.5-.36,10.27,1.35,14.24,5.19l1.79-4.38c4.82-1.64,10.82-1.54,15.89-1.44,5.88,.12,11.48,1.24,16.55,4.32l2.21-5.35c-8.67,2.31-17.47,1.8-25.58-2.22v4.53c6.46-3.84,13.94-3.81,20.39,.05l2.21-5.35c-5.73,.51-9.92-1.92-14.75-4.28l-2.3-1.91c1.16,2.68-.52,5.76-3.6,5.94-1.87,.11-3.57-1.4-5.29-1.53-.7-.05-3.5,0-.61,.34,4.28,.5,8.69-.35,12.44,2.38,.77,.56,2.12,1.64,2.36,2.57,.38,1.5,.22,.77-1.28,1.03-2.77,.49-6.27,0-9.04-.23-2.35-.19-7.06-.09-8.89-1.98-.51-.52-3.02-4.97-4.48-3.49-.52,1.33-.18,1.9,1.05,1.72,2.12,.33,1.41,.15-2.11-.53l1.46-2.26c-1.29,.71-4.53-.95-4.8-.72l-4.32,1.58h.75l-4.32-1.59,.4,.51,2.99-4.7,1.53-.41-2.99,4.7c5.25-.56,12.29,1.03,16.87-1.71,5.32-3.19,10.23-5.4,16.62-4.66l1.33-6.29-12.7-.77c-4.9-.3-6.98,5.36-1.33,6.29l14.27,2.34-1.19-5.85c-8.4,2.82-17.07,3.72-25.86,2.57v6.17c7.82-1.06,15.72-1.32,23.59-.64v-6.17c-9.96,2.1-20.02,3.57-30.19,4.25l1.33,6.29c9.94-1.66,19.9-2.27,29.97-1.89v-6.4c-15.99,.85-31.85-.34-47.53-3.6v6.17l37.52-5.74c5.54-.85,3.69-6.55-1.33-6.29l-33.05,1.71c-4.56,.24-7.32,5.74-1.33,6.29,17.12,1.57,33.95-.12,50.37-5.25,1.81-.57,2.99-2.25,2.05-4-1.04-1.92-4.06-2.08-5.9-1.85l-5.46,.68,2.66,6.17c5.12-.85,10.2-1.2,15.39-1.09l-1.33-6.29-12.9,2.84c-6.46,1.42-2.56,7.25,2.66,6.17,4.72-.97,9.1-1.09,13.85-.27l-2.21-5.35c-5.04,3.01-10.33,4.86-16.13,5.74s-3.58,6.29,1.33,6.29l23.91-.04-1.33-6.29c-5.92,1.11-11.81,1.64-17.83,1.6v6.4c5.81-.11,12.26-1.01,18.03-.3l-2.99-1.47,.74,.7-.5-2.47-.28,.49,4.82-2.35-.63,.04,4.82,2.35-.11-.39-4.82,4.05c8.75,.16,17.44,.76,26.12,1.84v-6.17c-9.12,1-18.21,.7-27.26-.76l1.19,5.85c10.1-4.14,20.46-7.35,31.15-9.57,5.49-1.14,3.72-6.35-1.33-6.29l-28.25,.37,2.52,5.96c4.93-1.79,9.88-2.9,15.09-3.49l-2.66-6.17c-1.48,.19-2.81-.17-3.98-1.06v4.53l20.19-12.3c4.84-2.95-2.89-6.55-6.06-5.03l-30.19,14.55,6.06,5.03c29.66-18.56,59.05-38.08,90.92-52.73l-6.06-5.03c-13.66,10.29-28.66,18.48-43.68,26.58l7.07,4.53,52.47-39.58-7.85-3.88c-18.99,22.57-42.98,39.88-68.93,53.64l7.07,4.53c9.11-5.78,17.56-12.44,25.32-19.94l-8.63-3.23c-5.61,6.29-11.46,12.32-17.57,18.12-3.79,3.59,5.77,5.84,8.63,3.23,14.57-13.27,29.54-26.09,44.91-38.43,4.72-3.79-3.82-7.08-7.07-4.53-15.93,12.53-33.52,22.5-52.49,29.66l6.06,5.03c11.29-8.44,23.24-15.87,35.78-22.32l-7.07-4.53-37.29,29.32c-4.78,3.76,3.77,6.94,7.07,4.53l34.71-25.4-7.85-3.88c-10.43,9.83-21.6,18.73-33.47,26.75l7.07,4.53c19.63-15.8,38.07-32.96,55.14-51.5,3.67-3.99-5.9-5.81-8.63-3.23-15.19,14.35-32.56,26.23-51.47,35.11l6.06,5.03c11.76-8.9,23.93-17.2,36.5-24.89l-7.07-4.53c-12.71,9.48-27.26,15.31-43.01,17.18l4.86,5.35c17.36-8.96,35.93-16.72,55.85-15.46l-4.82-4.05c-3.62,12.16-17.43,18.63-27.75,24.29-12.4,6.8-25.55,12.17-39.49,14.76l6.15,2.24c-6.07-9.59,12.73-21.78,19.1-26.36,9.76-7,20.4-12.5,31.69-16.57l-6.84-4.38c-7.82,9.33-16.48,17.96-26.04,25.52-4.59,3.63-9.36,7.04-14.27,10.22-2.34,1.51-4.72,2.97-7.14,4.37-2.72,1.58-6.26,4.3-9.4,4.78l3.85,.32-1.24-.46,2.3,1.91c-2.15-3.32,2.76-9.6,5.02-11.85,3.25-3.25,7.56-5.47,12.19-5.71l-4.82-4.05c-1.15,4.79-2.78,9.4-5.06,13.77-1.12,2.15-2.38,4.23-3.79,6.2-.71,.99-3.16,5.23-4.37,5.54l3.85,.32c.05,.01,2.3-7.81,2.79-9.07,1.33-3.44,3.06-6.78,5.15-9.81,4.15-6,9.55-10.81,15.86-14.45l-8.36-3.11c-3.2,10.37-8.82,19.49-15.54,27.94-3.14,3.94-6.46,7.73-9.83,11.48-.52,.57-4.7,5.99-5.48,5.76-1.46-.42-.88-6.61-.71-7.77l-9.82,.85,2,3.75c1.57,2.96,9.87,3.55,9.82-.85-.08-7.42-1.39-14.61-3.9-21.59-1.38-3.84-11.24-2.79-9.64,1.7,1.82,5.12,3.19,10.28,4.07,15.64,.69,4.21,10.27,4.38,10,0-.45-7.13,2.19-13.95,7.91-18.4l-8.36-1.41c3.92,8.6,3.21,18.56-2.38,26.29l9.14,.76c-2.51-9.35,1.67-18.66,7.54-25.84,5.15-6.31,15.04-16.52,23.98-12.8l-2.3-3.61-13.61,39.48c-1.54,4.46,6.12,4.31,8.36,3.11,39.27-21.09,73.51-51,99.48-87.25,3.12-4.36-6.3-6.49-8.63-3.23h0Z"/></g><g><path d="M712.21,766.36c1.46,2.11,2.94,4.28,3.61,6.75s.42,5.33-1.3,7.24c-1.51,1.67-3.83,2.33-6.02,2.91"/><path d="M707.89,767.97c1.58,2.31,3.49,5.06,3.27,8-.23,3.18-2.51,3.78-5.18,4.52-1.99,.54-3.16,2.68-1.79,4.38,1.56,1.95,4.75,1.72,6.84,1.15,4.44-1.21,8.81-3.35,9.87-8.23s-1.71-9.15-4.37-13.04c-2.25-3.29-11.68-1.22-8.63,3.23h0Z"/></g><g><path d="M678.75,784.97l12.42,.12c3.94,.04,7.91,.07,11.77-.68s7.66-2.35,10.37-5.16"/><path d="M678.75,788.17c13.02,.12,28.53,2.35,38.88-7.31,3.76-3.51-5.74-5.93-8.63-3.23-7.33,6.83-21.09,4.22-30.24,4.14-6.13-.06-6.14,6.34,0,6.4h0Z"/></g><g><path d="M678.12,786.48c-.32,2.92-3.94,4.26-5.4,6.82-1.14,2.01-.79,4.49-.41,6.77,.74,4.42,1.66,9.18,5.03,12.19,2.21,1.98,5.19,2.89,8.09,3.58,7.85,1.86,16.1,2.47,24,.86,7.9-1.61,15.45-5.55,20.56-11.7,4.41-5.31,6.83-12.85,4.02-19.12-.58-1.29-1.41-2.53-2.66-3.22-.93-.51-2.01-.67-3.07-.8-2.56-.33-5.12-.58-7.69-.76-6.39-.44-13.07-.36-18.83,2.39-5.76,2.75-10.31,8.84-9.36,15.07,.77,5.03,5.3,9.25,10.44,9.74s10.41-2.8,12.15-7.58c.94-2.6,.75-5.85-1.37-7.66-1.35-1.16-3.21-1.51-4.98-1.8-4.06-.66-8.14-1.19-12.23-1.57-4.08-.39-8.32-.61-12.14,.84-3.73,1.42-6.74,4.37-8.67,7.82-1.36,2.42-2.22,5.4-1.09,7.94,1.75,3.94,7.02,4.68,11.39,4.75,3.17,.05,6.39,.03,9.43-.85s5.92-2.74,7.32-5.54c1.31-2.62,1.17-5.76,.21-8.52-2.03-5.84-7.84-10.21-14.09-10.62-6.26-.41-12.59,3.18-15.39,8.7-1.75,3.45-1.88,8.2,1.14,10.65,1.52,1.23,3.54,1.66,5.49,1.92,4.62,.61,9.33,.53,13.93-.24,3.21-.54,6.55-1.54,8.68-3.96s2.39-6.64-.21-8.56c-1.02-.76-2.31-1.06-3.57-1.28-3.76-.66-7.63-.72-11.41-.18-3.45,.49-7.44,2.14-7.93,5.54-.45,3.19,2.92,5.98,6.18,5.91s6.14-2.26,8.1-4.83c.74-.97,1.41-2.2,1-3.35-.63-1.73-3.08-1.82-4.88-1.33-2.18,.59-4.25,1.55-6.09,2.84,1.01,1.93,3.14,3.1,5.3,3.51s4.4,.16,6.59-.11c1.72-.21,3.97-1.12,3.61-2.78-.2-.96-1.23-1.49-2.14-1.89-1.74-.76-4.15-1.37-5.26,.16-.36,.49-.48,1.12-.45,1.73,.07,1.92,1.47,3.61,3.19,4.53s3.71,1.18,5.66,1.3c5.25,.33,10.56-.27,15.61-1.75,2.83-.83,5.63-1.97,7.81-3.93s3.65-4.85,3.28-7.73c-.41-3.18-3.12-5.85-6.29-6.55s-6.63,.49-8.91,2.77c-1.98,1.98-3.08,4.63-4.14,7.21-.55,1.34-.94,3.2,.33,3.94,.57,.33,1.29,.27,1.95,.18,3.23-.47,6.36-1.51,9.22-3.07,.58-.32,1.22-.79,1.16-1.44-.03-.34-.26-.63-.5-.88-4.36-4.75-13.27-4.12-16.9,1.19-.79,1.15-1.36,2.55-1.11,3.92,.5,2.85,4.15,4.07,7.04,3.56,4.16-.73,7.75-4,8.81-8.02,.24-.9,.34-1.93-.17-2.71-.38-.59-1.05-.93-1.71-1.19-1.83-.73-4.03-.97-5.69,.08s-2.24,3.72-.71,4.95c.7,.56,1.64,.72,2.54,.82,4.31,.51,9.47,.02,11.73-3.62,.2,3.15,.23,6.75-2.11,8.9-1.16,1.07-2.74,1.59-4.26,2.04-4.27,1.27-8.61,2.3-13,3.09-1.92,.34-3.94,.68-5.49,1.85s-2.41,3.48-1.3,5.06c.99,1.42,3.01,1.64,4.76,1.64,10.64-.04,21.23-3.61,29.65-10-6.15,.06-11.82,3.11-17.18,6.08,8.55-4.26,17.31-8.11,26.24-11.53"/><path d="M673.3,785.63c-1.13,4.1-5.93,5.43-6.32,10.27-.36,4.43,1.12,10.5,3.27,14.33,5.12,9.13,18.77,10.31,28.1,10.58,10.36,.29,21.3-2.17,29.74-8.42,7.28-5.4,13.57-14.23,11.82-23.75-2.11-11.47-15.25-10.96-24.58-10.94s-20.81,2.67-25.97,11.79c-4.84,8.54-.11,18.21,8.91,21.15,8.32,2.71,19.7-1.21,21.92-10.41,2.76-11.44-11.19-12.39-18.93-13.27-10.23-1.16-21.26-1.6-28.32,7.28-2.75,3.47-5.15,8.47-3.24,12.88,1.62,3.73,5.75,5.61,9.49,6.42,8.39,1.82,20.69,1.45,26.68-5.64,6.19-7.33,.97-17.76-6.11-22.2-8.11-5.09-19.06-4.39-26.42,1.74-6.07,5.06-9.44,15.7-1.11,20.45,7.76,4.43,21.69,3.35,29.63-.17,4.13-1.83,7.72-5.4,7.39-10.23s-4.76-7.05-9.06-7.87c-6.7-1.27-26.89-1.74-25.64,9.78,.56,5.12,6.62,7.8,11.15,7.78,4.84-.02,9.51-2.6,12.42-6.42,2.65-3.49,2.04-7.44-2.27-9.08-5.24-1.99-11.17,.57-15.55,3.36-1.55,.99-1.76,2.45-.78,3.88,3.24,4.73,9.23,5.55,14.56,5.18,3.49-.24,11.77-1.6,10.08-7.02-2.57-8.29-22.67-5.96-16.52,4.35,2.87,4.81,9.42,5.49,14.45,5.61,6.85,.17,14.26-.93,20.53-3.81,4.23-1.94,8.27-5.25,9.21-10.03,1.15-5.85-3.21-10.58-8.57-12.16-4.98-1.46-10.73-.33-14.71,3.01-3.2,2.68-8.46,10.31-5.52,14.55,4.52,6.53,26.63-.68,21.12-7.7-5.82-7.4-20.24-5.99-25.54,1.19-3.08,4.18-1.85,8.82,2.75,11.05,5.14,2.5,11.59,1.34,16.07-2.02,3.57-2.68,7.85-9.12,3.63-13.01-3.9-3.59-12.61-3.91-16.14,.4-4.54,5.55,2.13,9.32,6.99,9.79,5.73,.56,12.36-.35,16.06-5.21l-9.32-1.62c.09,1.74,.46,4.31-.46,5.9-1.3,2.25-4.29,2.55-6.53,3.14-4.2,1.1-8.69,1.47-12.8,2.85-4.7,1.57-9.84,7.19-4.78,11.53,4.86,4.17,13.81,2.38,19.49,1.18,7.93-1.68,15.32-4.97,21.86-9.76,3.5-2.56-.46-5.62-3.54-5.46-7.67,.4-14.08,3.36-20.72,7.01-2.03,1.12-1.61,3.32,0,4.53,2.02,1.51,5.01,1.02,7.07,0,8.23-4.07,16.66-7.72,25.23-11.03,6.11-2.36-.82-7.16-5.05-5.53-9.28,3.58-18.34,7.62-27.25,12.03l7.07,4.53c4.25-2.34,8.68-4.88,13.64-5.14l-3.54-5.46c-4.79,3.5-10.03,6.26-15.81,7.74-2.68,.69-5.83,1.46-8.62,1.3-5.36-.32,3.27-2.52,4.49-2.77,5.09-1.04,11.67-1.94,16.02-4.96,3.96-2.75,4.44-7.13,4.22-11.62-.19-3.85-7.42-4.11-9.32-1.62-1.74,2.29-4.72,1.64-5.84,2.44-1.34,.95-1.73,2.85-2.89,4-1.08,1.05-4.39,3.54-3.55-.53,.6-2.92,4.1-3.13,6.28-3.06l1.13,.53c1.49-.82,1.56-.9,.21-.24-1.51,.47-3.7,2.06-5.33,1.63l2.99,1.47c-1.37-1.53,3.45-8.45,5.48-9.03,2.53-.73,3.95,1.66,4.17,3.76,.25,2.4-1.09,4.44-2.9,5.9-2.98,2.4-7.68,3.18-11.32,3.64-1.87,.24-3.78,.34-5.67,.26-1.19-.05-8.04-.96-5.03-3.5l-2.99,1.47c2.08-.53-1.58-.77-1.65-.79-1.97-.42-2.94-.2-4.27-2.13l-.78,3.88c.89-.56,2.69-1.13,3.46-1.83l-1.17-.49c-.48,.74-1.05,1.4-1.72,1.97-3.03,2.71-4.58-.64-2.03-2.76,2.81-2.34,14.99-2.4,13.14,3.14-1.41,4.22-8.49,4.27-12.04,4.35-5.74,.13-12.17-1.06-9.05-8.32,4.52-10.5,19.22-7.69,20.58,3.32,.69,5.58-3.45,8.41-8.54,8.8-4.56,.35-12.11,.79-10.64-5.88,1.2-5.44,6.42-9.19,11.78-9.3,4.85-.1,11.6,.13,16.19,1.75,3.11,1.09,3.94,2.99,2.57,6.16-.89,2.06-3.18,4.46-5.58,4.62-5.6,.37-7.85-7.09-6.53-11.33,1.44-4.6,5.71-7.73,10.2-8.91,5.03-1.32,13.02-1.52,18.01-.05,5.54,1.63,4.68,8.58,2.99,12.94s-5.21,8.26-9.19,10.95c-9.81,6.63-23.68,7.36-34.73,3.56-5.73-1.97-7.09-7.44-7.86-12.91-.44-3.14-.06-4.55,1.98-6.86,1.6-1.81,3.08-2.75,3.76-5.18,1.28-4.63-8.56-5.61-9.64-1.7h0Z"/></g><g><path d="M731.11,765.45l.14,20.03c-.83-5.68-2.41-11.26-4.69-16.55-1.78,3.77-2.48,8.03-1.97,12.16l2.62-17.89c.89,8.35,2.37,16.64,4.41,24.8,.35,1.39,.97,3.02,2.4,3.28,.95,.18,1.88-.37,2.69-.9,8.69-5.67,16.63-12.45,23.56-20.12,1.83-2.03,3.15-5.98,.51-6.78-7,3.84-12.51,10.24-15.21,17.66,.69-2.56-.98-5.29-3.25-6.72s-5.02-1.86-7.69-2.25l-14.24-2.11c13.37,4.54,27.43,7.09,41.57,7.54-3.37,2.9-7.34,5.12-11.59,6.49l1.4-3.47c-5.25-.48-10.64,.75-15.14,3.43,9.57-2.03,18.89-5.18,27.72-9.36-9.62-1.99-20.17,1.05-27.16,7.85,8.46,1.07,17.14,.48,25.37-1.73,2.5-.67,5.18-1.67,6.41-3.91,1.45-2.66,.13-6.15-2.28-8.01-2.41-1.86-5.61-2.39-8.67-2.49-9.02-.27-18.1,2.89-24.94,8.68-1.63,1.38-3.25,3.15-3.24,5.27,0,4.33,5.95,5.68,10.34,5.45,16.14-.85,32.12-4.49,47-10.7,8.18-3.42,17.13-9.26,17.23-18.01-21.04,.89-41.64,9.65-56.72,24.12-1.69,1.62-3.37,3.4-4.09,5.61s-.23,4.98,1.73,6.27c1.31,.86,2.99,.93,4.56,.93,17.19-.02,34.35-4.66,49.13-13.3,2.76-1.61,5.53-3.45,7.23-6.13s2.08-6.41,.09-8.89c-1.71-2.14-4.67-2.85-7.43-3.07-7.92-.61-15.74,1.83-23.14,4.67-10.48,4.03-20.6,8.94-30.24,14.66-4.85,2.88-10.27,7.82-8.23,13.03,1.38,3.55,5.61,5.05,9.4,5.81,17.46,3.52,35.62,.51,52.77-4.23,13.03-3.6,26.26-8.49,35.68-18.06,1.11-1.13,2.24-2.52,2.05-4.09-.26-2.24-2.9-3.29-5.13-3.8-18.75-4.28-38.85-2.59-56.6,4.75-3.8,1.57-8.13,4.51-7.46,8.52,.7,4.21,6.17,5.48,10.5,5.6,20.91,.59,41.94-3.55,61.01-12,5.47-2.43,11.51-6.26,11.76-12.16,.19-4.41-3.23-8.37-7.32-10.17-4.09-1.8-8.73-1.87-13.21-1.69-17.04,.68-33.98,4.51-49.49,11.5-4.61,2.08-9.28,4.59-12.13,8.72-2.85,4.13-3.26,10.29,.36,13.78,2.56,2.48,6.41,3.07,9.99,3.27,21.08,1.15,42.49-7.9,56.15-23.73,1.75-2.03,3.48-4.7,2.51-7.19-.58-1.49-2-2.48-3.44-3.21-5.78-2.92-12.61-2.75-19.1-2.36-20.46,1.23-41.88,4.44-58.11,16.76-3.11,2.36-6.23,5.63-5.83,9.47,.31,2.97,2.7,5.34,5.28,6.89,6.39,3.83,14.29,4.11,21.76,3.72,16.97-.88,33.78-4.65,49.46-11.08,2.44-1,5.18-2.45,5.63-5.01,.45-2.51-1.56-4.79-3.69-6.24-5-3.41-11.25-4.52-17.32-4.8-15.92-.74-32.04,3.78-45.18,12.65-4.83,3.26-9.74,8.59-7.91,14.06,1.79,5.35,8.71,6.86,14.44,6.85,14.91-.03,29.78-4.49,42.17-12.65,3.44-2.27,6.93-5.17,7.66-9.18,.84-4.56-2.36-9.12-6.5-11.32s-9.03-2.53-13.74-2.58c-17.91-.19-35.86,2.96-52.6,9.23-3.37,1.26-7.04,3.01-8.19,6.37-.65,1.89-.34,4,.48,5.81,1.86,4.1,6.17,6.73,10.63,7.7s9.09,.55,13.62,0c17.93-2.12,36.17-5.98,51.18-15.85,.67-.44,1.38-.97,1.51-1.75,.13-.79-.39-1.54-.96-2.12-3.71-3.81-9.67-4.37-15.03-4.06-13.27,.78-26.28,5.55-36.83,13.51-2.39,1.8-4.88,4.32-4.41,7.24,.67,4.2,6.37,5.11,10.67,4.76,17.99-1.48,35.6-7.25,50.91-16.66,1.29-.79,2.61-1.67,3.3-3,1.1-2.12,.16-4.85-1.65-6.43s-4.28-2.21-6.68-2.48c-11.03-1.22-21.59,4.11-31.36,9.29-1.34,.71-2.83,1.63-3.02,3.11-.32,2.48,3.01,3.65,5.55,3.75,7.96,.3,15.98-1.09,23.36-4.06-.13-1.89-2.57-2.58-4.5-2.67-10.93-.49-22,2.72-30.91,8.97,5.26,1.46,11.17,.43,15.6-2.72-6.93,.57-13.74,2.56-19.87,5.81-7.72,4.09-14.69,10.26-23.37,11.43,29.94,.07,59.89-3.21,89.08-9.77,5.51-1.24,11.21-2.7,15.53-6.29,7.14-5.93,8.52-17.48,2.97-24.88-1-1.33-2.26-2.58-3.88-3-1.51-.39-3.1-.02-4.6,.4-9.03,2.55-17.48,7.07-24.56,13.15,4.65,1.6,9.75,0,14.32-1.8,6.01-2.36,12.11-5.23,16.08-10.26,3.96-5.03,5.08-12.76,.89-17.61-14.52,4.87-27.05,15.28-34.35,28.56,10.5-8.58,15.65-22.1,17.41-35.42,1.76-13.32,.57-26.82,.73-40.25,.15-12.62,1.49-25.23,4-37.61,3.77,30,5.41,60.26,4.92,90.49"/><path d="M726.11,765.45l.14,20.03h10c-.95-6.01-2.53-11.77-4.87-17.4-1.35-3.24-8.28-3.2-9.64,0-1.79,4.23-2.52,8.43-2.15,13.01s9.37,4.27,10,0l2.62-17.89h-10c.72,6.4,1.73,12.74,3.07,19.03,.93,4.37,1.25,10.16,6.22,11.81,5.24,1.74,9.76-1.95,13.73-4.83,4.69-3.41,9.17-7.14,13.36-11.15,3.04-2.91,7.56-6.41,8.44-10.79,.77-3.8-1.78-6.56-5.58-6.93-4.54-.44-9.14,3.9-12.16,6.85-3.78,3.69-6.62,8.21-8.54,13.11l9.82,.85c1.58-13.09-20.73-12.96-28.85-14.17-3.72-.55-9.78,3.88-3.85,5.85,14.3,4.75,29.03,7.4,44.09,7.98l-3.54-5.46c-3.26,2.66-6.6,4.59-10.58,5.99l7.34,3.61,1.4-3.47c1.15-2.86-2.91-3.94-4.82-4.05-6.65-.39-12.87,1.15-18.68,4.37-4.67,2.59,2.07,5.96,4.86,5.35,9.98-2.2,19.64-5.37,28.91-9.68,3.68-1.71,2.52-5.18-1.19-5.85-11.93-2.13-23.87,1.1-32.81,9.32-2.27,2.09,1.1,4.49,2.99,4.7,8.18,.92,16.4,.81,24.48-.88,5.16-1.08,13.03-2.76,14.09-9.03,1.07-6.34-5.08-10.58-10.49-11.82-6.59-1.51-13.81-.62-20.21,1.33-6.06,1.85-13.37,5.34-17.17,10.62-3.32,4.6-1.03,9.31,3.8,11.47,6.05,2.72,13.16,1.59,19.51,.88,8.44-.95,16.76-2.7,24.92-5.07,12.75-3.71,33.59-9.9,34.62-26.03,.14-2.27-3.34-3.29-5-3.2-14.27,.74-28.03,4.36-40.7,11.02-6.48,3.41-12.51,7.64-17.98,12.51-3.94,3.5-9.17,8.42-6.91,14.28,2.45,6.35,10.91,5.68,16.4,5.37,7.68-.43,15.25-1.66,22.66-3.71,7.79-2.15,15.27-5.19,22.36-9.08,5.29-2.9,11.82-6.84,12.39-13.54,1.35-15.83-24.1-11.19-32.44-8.64-7.98,2.45-15.72,5.88-23.21,9.54-6.78,3.32-14.27,6.63-19.94,11.71-4.06,3.63-7.1,9.32-3.49,14.36s10.72,6.15,16.35,6.93c16.18,2.24,32.55-.15,48.23-4.28,13.9-3.66,28.07-8.33,39-18.04,4.34-3.85,7.6-9.27,1.25-12.99-5.63-3.29-13.81-3.53-20.14-3.99-15.33-1.09-31.86,1.17-45.94,7.54-4.53,2.05-10.58,5.99-9.12,11.84,1.3,5.24,7.45,7.12,12.17,7.71,15.14,1.88,31.89-1.06,46.46-5.04,7.51-2.05,14.99-4.59,22-7.99,5.07-2.47,10.7-6.06,12.12-11.91,3.64-14.95-17.18-17.67-27.02-17.16-16.34,.85-32.61,4.36-47.68,10.76-9.31,3.96-26.17,14.18-17.21,26.58,3.83,5.3,10.98,6.13,17.03,6.32,7.28,.23,14.62-.7,21.66-2.57,13.26-3.53,25.64-10.52,35.13-20.49,3.96-4.16,8.28-10.12,2.83-14.96-4.78-4.25-12.41-5.06-18.52-5.16-14.47-.22-29.74,1.85-43.61,5.93-6.73,1.98-13.29,4.73-19.3,8.38-4.86,2.96-11.71,7.25-12.49,13.49s5.24,10.73,10.49,12.92c6.72,2.81,14.29,3.08,21.46,2.72,15.99-.8,31.87-4.01,46.9-9.54,4.74-1.74,13.2-4.11,13.19-10.49s-8.42-10.11-13.62-11.63c-14.12-4.12-30.62-1.87-44.22,3.12-9.1,3.34-29.84,12.12-26.24,25.09s23.31,10.31,32.73,8.79c7.45-1.2,14.81-3.41,21.66-6.59,6.05-2.81,13.18-6.24,17.34-11.67,3.76-4.92,3.16-10.96-.81-15.53-4.45-5.13-11.48-6.68-17.97-7.1-15.92-1.04-32.36,1.46-47.64,5.78-6.17,1.74-14.4,3.48-19.2,8.1-4.47,4.3-3.79,10.52,.11,14.98,9.48,10.87,27.56,6.83,39.83,4.71,14.2-2.45,29.72-6.46,41.62-14.99,5.82-4.17,1.03-9.16-3.94-11.34-6.1-2.68-13.07-2.35-19.53-1.56-7.24,.88-14.45,2.89-21.1,5.89-5.95,2.69-13.16,6.18-17.38,11.33-3.7,4.52-2.55,9.77,2.59,12.38,5.8,2.95,12.89,1.81,19.05,.92,15.15-2.19,29.9-7.31,43.18-14.92,5.12-2.93,11.02-7.26,6.65-13.63-3.63-5.29-11.59-5.92-17.41-5.63-7.89,.39-15.38,3.19-22.42,6.61-3.8,1.85-12.99,4.74-11.61,10.51,1.25,5.21,9,5.61,13.14,5.57,7.95-.09,15.72-1.68,23.12-4.52,1.53-.59,2.88-1.88,2.3-3.61-2.34-7.01-14.21-5.23-19.65-4.48-8.65,1.19-16.9,4.48-24.12,9.37-3.15,2.13-.42,4.74,2.21,5.35,7.11,1.65,14.34,.43,20.46-3.54,4.69-3.04-2.2-5.61-4.86-5.35-7.75,.77-15.19,2.97-22.07,6.63s-13.19,9.24-21.17,10.61c-5.62,.96-3.61,6.29,1.33,6.29,19.32,0,38.64-1.29,57.78-3.96,9.02-1.26,18-2.82,26.92-4.68,7.52-1.57,15.82-2.91,22.25-7.42,9.76-6.85,12.83-23.02,3.26-31.52-5.71-5.08-13.67-2.25-19.88,.21-7.38,2.92-14.01,7.1-20.09,12.18-2.58,2.16,1.43,4.28,2.99,4.7,16.31,4.37,51.85-14.62,36.94-34.38-1.42-1.89-4.9-1.83-6.84-1.15-15.57,5.44-28.51,16.12-36.65,30.47-1.07,1.89,1.53,3.36,2.89,3.78,2.18,.66,4.53,.15,6.24-1.31,14.37-12.24,18.52-31.38,19-49.45,.29-10.86-.45-21.71-.07-32.57s1.74-22.03,3.89-32.88h-10c3.72,30.02,5.37,60.24,4.92,90.49-.06,4.32,9.94,4.36,10,0,.45-30.25-1.2-60.47-4.92-90.49-.56-4.47-9.17-4.21-10,0-4.08,20.6-3.63,40.75-3.76,61.61-.11,18.19-3.08,37.61-17.69,50.05l9.14,2.47c7.11-12.55,18.46-21.9,32.05-26.65l-6.84-1.15c4.58,6.07,.65,14.09-4.71,18.11s-14.43,8.61-20.94,6.87l2.99,4.7c4.94-4.13,10.51-7.5,16.5-9.88,1.47-.59,3.12-1.42,4.68-1.65,1.78-.27,1.51-.64,2.83,.5,1.8,1.55,2.7,5.04,3,7.29,.63,4.78-.79,9.96-4.14,13.48-4.26,4.48-11.07,5.56-16.84,6.81-27.9,6.05-56.35,9.02-84.9,9.02l1.33,6.29c7.44-1.27,13.58-4.99,19.89-8.9,7.35-4.55,14.69-7.47,23.35-8.33l-4.86-5.35c-3.5,2.26-6.69,2.83-10.73,1.89l2.21,5.35c4.23-2.86,8.76-5.13,13.69-6.51,2.16-.61,12.79-2.94,13.37-1.2l2.3-3.61c-5.23,2-10.63,3.33-16.24,3.6-1.42,.07-5.29,.79-4.09-1.09,1.03-1.6,6.65-3.45,8.17-4.15,4.6-2.12,9.5-4.08,14.59-4.56,2.16-.2,5.62-.48,7.56,.78,4.17,2.72-.29,5.66-2.73,7.08-9.09,5.3-19,9.29-29.23,11.75-4.52,1.09-9.13,1.91-13.75,2.41-1.71,.19-4.06,.68-5.75,.13-3.73-1.23-1.3-4.65,.89-6.44,7.42-6.05,17.03-9.97,26.38-11.69,4.34-.8,9.45-1.67,13.8-.45,1.03,.29,2.41,.57,3.09,1.48,1.12,1.48,1.49-.66-.47,1.46-1.5,1.63-4.87,2.83-6.85,3.77-9.13,4.39-19,6.94-28.94,8.66-8.02,1.39-21.53,5.36-28.1-1.27-9.84-9.93,12.52-14.24,18.34-15.69,10.66-2.66,21.61-4.09,32.59-4.18,4.38-.04,9.46-.32,13.39,1.92,5.16,2.93,6.13,8.75,1.94,12.95-6.96,6.99-18.68,11.02-28.11,12.98-5.26,1.09-21.37,4.78-23.65-3.02-2.65-9.05,14.59-15.94,20.68-18.25,9.56-3.62,20.2-5.37,30.4-4.19,3.14,.36,15.58,2.68,12.75,8.21-.79,1.54-4.62,2.42-6.1,2.99-2.83,1.08-5.69,2.08-8.58,2.98-10.15,3.19-20.73,5.25-31.34,6.09-4.48,.36-9.12,.66-13.59,.07s-13.5-3.03-11.96-9.16c1.06-4.24,6.78-7.26,10.21-9.29,4.26-2.52,8.82-4.45,13.52-6.01,8.87-2.95,18.21-4.37,27.48-5.24,4.68-.44,9.44-.86,14.15-.78,2.36,.04,4.79,.2,7.05,.92,.71,.23,2.39,.73,3.02,1.32,2.16,2,.55,4.12-.92,5.93-5.73,7.09-13.79,12.73-22.06,16.46s-17.45,5.86-26.62,5.79c-5.01-.04-10.69-.56-10.74-6.82-.05-5.2,3.93-8.78,8.11-11.18,9.14-5.24,20.04-8.39,30.31-10.47,4.77-.97,9.61-1.69,14.46-2.13,5.13-.46,12.08-1.52,16.85,.99,3.68,1.94,5.87,6.33,3.81,10.22-2.22,4.19-7.62,6.2-11.73,7.89-9.57,3.94-19.53,6.78-29.74,8.46-5.17,.85-10.37,1.4-15.6,1.63-3.53,.15-10.76,1.43-13.92-.81-5.22-3.71,4.02-7.52,6.8-8.55,5.08-1.88,10.32-3.25,15.67-4.16,10.05-1.7,20.38-1.6,30.4,.29,2.67,.5,5.81,.49,3.52,3.9-1.21,1.79-3.59,3.31-5.3,4.56-4.05,2.95-8.49,5.29-13.11,7.19-18.76,7.73-41.44,12.86-61.68,9.56-4.01-.65-10.37-1.83-8.47-7.42,1.54-4.52,7.82-7.23,11.65-9.36,9.38-5.23,19.33-9.9,29.55-13.24,4.57-1.49,11.46-3.78,16.25-2.16,6.92,2.34,.46,9.42-2.87,11.59-8.84,5.76-19.45,9.49-29.75,11.5-5.03,.98-10.3,1.79-15.44,1.68-2.44-.05-3.86-.18-3.25-3.13,.49-2.38,3.05-4.37,4.76-5.95,6.94-6.43,15.17-11.6,23.9-15.22s17.92-5.73,27.33-6.22l-5-3.2c-.71,11.12-14.68,15.55-23.45,18.54-6.08,2.08-12.29,3.7-18.61,4.87-5.92,1.1-12.77,2.64-18.8,2.09-7.56-.69-.58-6.55,2.57-8.48,4.79-2.92,10.48-4.64,16.11-4.52,2.87,.06,6.65,.6,7.18,4.06s-3.18,4.11-5.83,4.72c-6.58,1.51-13.35,1.84-20.05,1.08l2.99,4.7c5.91-5.43,13.6-7.8,21.52-6.38l-1.19-5.85c-8.53,3.96-17.33,7.01-26.52,9.04l4.86,5.35c3.73-2.06,7.39-2.74,11.6-2.5l-4.82-4.05-1.4,3.47c-1.56,3.86,5.19,4.37,7.34,3.61,4.62-1.62,8.81-3.89,12.6-6.99,3.44-2.81-.44-5.34-3.54-5.46-13.32-.52-26.4-2.91-39.04-7.11l-3.85,5.85c5.1,.76,22.4,.64,21.51,8-.5,4.11,8.56,4.07,9.82,.85,2.75-7.04,7.38-12.46,13.92-16.25h-7.07c1.41,.76-9.62,11.26-10.46,12.01-2.33,2.07-4.74,4.04-7.24,5.91-1.63,1.22-4.8,4.26-6.85,4.53l3.85,.32c-.7-.32-2.19-10.82-2.39-11.89-.82-4.45-1.44-8.93-1.95-13.43s-9.37-4.3-10,0l-2.62,17.89h10c-.32-4.02,.21-7.57,1.79-11.31h-9.64c2.11,5.08,3.65,10.26,4.51,15.69,.67,4.19,10.03,4.45,10,0l-.14-20.03c-.03-4.34-10.03-4.35-10,0h0Z"/></g><g><path d="M826.9,703.99l6.47,34c.4,2.12,.8,4.36,.08,6.4s-2.98,3.73-5.06,3.05c-3.89-4.49-1.6-11.24-.14-16.96,4.11-16.02-.07-32.81-1.41-49.28-.38-4.66-.38-9.78,2.59-13.42,2.6,7.55,3.36,15.71,2.18,23.59"/><path d="M821.9,703.99l3.95,20.78c.58,3.06,5.42,18.92,1.27,20.06l3.85-.32-1.26-.14,2.99,1.47c-3.54-4.86-.09-12.02,.99-17.19,1.35-6.52,1.53-13.14,1.11-19.76s-1.4-13.37-2.18-20.04c-.7-5.96-2.58-14.12,1.13-19.43l-9.14-.76c2.42,7.46,3.01,14.97,2.01,22.74-.54,4.15,9.43,4.39,10,0,1.08-8.34,.23-16.45-2.36-24.44-.98-3.01-7.48-3.14-9.14-.76-6.95,9.94-2.06,24.92-.9,36.03,.72,6.91,1.15,13.91,.38,20.84-.67,5.97-3.38,11.82-3.37,17.85,0,4.67,2.04,9.28,7.08,9.77,4.76,.46,9.33-2.13,10.3-6.99,1.1-5.51-1.55-12.54-2.59-17.97l-4.13-21.72c-.83-4.35-10.77-4.04-10,0h0Z"/></g><g><path d="M854.79,640.59c2.72,36.51,1.76,73.29-2.84,109.62l15.26-118,2.65,103.95"/><path d="M849.79,640.59c2.65,36.55,1.7,73.25-2.84,109.62-.52,4.16,9.43,4.39,10,0l15.26-118h-10l2.65,103.95c.11,4.35,10.11,4.33,10,0l-2.65-103.95c-.11-4.41-9.45-4.26-10,0l-15.26,118h10c4.55-36.37,5.5-73.07,2.84-109.62-.32-4.38-10.31-4.27-10,0h0Z"/></g><g><path d="M860.12,697.67c3.78,16.67,5.98,33.68,6.56,50.74l-2.88-10.98,.91,5.43c-1.95-4.71-3.32-9.66-4.07-14.69l2.25,5.89c7.58-31.03,15.21-62.38,15.55-94.29"/><path d="M855.3,698.52c3.67,16.41,5.76,33.09,6.38,49.89l9.82-.85-2.88-10.98c-.92-3.52-10.47-3.01-9.82,.85l.91,5.43,9.82-.85c-1.79-4.5-3.11-9.05-3.89-13.84l-9.82,.85,2.25,5.89c1.14,2.99,8.8,3.45,9.64,0,7.64-31.26,15.24-62.8,15.73-95.15,.07-4.32-9.93-4.36-10,0-.49,31.78-7.87,62.72-15.37,93.44h9.64l-2.25-5.89c-1.24-3.25-10.47-3.16-9.82,.85,.87,5.35,2.24,10.5,4.24,15.54,1.28,3.21,10.5,3.18,9.82-.85l-.91-5.43-9.82,.85,2.88,10.98c.92,3.52,9.97,3.14,9.82-.85-.65-17.4-2.95-34.61-6.74-51.6-.87-3.89-10.7-3.03-9.64,1.7h0Z"/></g><g><path d="M869.29,640.62c-.59,26.66-12.32,51.64-21.36,76.78-5.44,15.13-9.97,30.57-13.56,46.23"/><path d="M864.29,640.62c-.67,21.14-7.99,40.95-15.42,60.51s-14.45,40.57-19.32,61.65c-1.09,4.7,8.74,5.62,9.64,1.7,5.02-21.69,12.09-42.58,19.98-63.37,7.4-19.51,14.45-39.43,15.12-60.49,.14-4.3-9.86-4.38-10,0h0Z"/></g><g><path d="M868.49,711.95c3.73,13.07,.95,26.98-1.84,40.27-1.07,5.1-2.35,10.57-6.31,14.04,5.41-8.72,9.02-18.52,10.53-28.63-1.86,16-4.16,33.05-14.79,45.3"/><path d="M863.67,712.8c2.46,9.35,1.73,19,.13,28.43-1.28,7.59-2.01,17.75-7.77,23.41l9.14,2.47c5.52-9.12,9.01-18.97,10.71-29.49h-10c-1.79,15.28-3.89,31.46-14.1,43.68-3.4,4.07,6.06,6.31,8.63,3.23,11.05-13.22,13.53-30.34,15.47-46.91,.49-4.23-9.31-4.3-10,0-1.6,9.91-5.16,19.21-10.35,27.78-2.49,4.12,7.12,4.44,9.14,2.47,6.39-6.26,7.3-16.42,8.82-24.8,1.94-10.72,2.63-21.34-.16-31.98-1.02-3.89-10.87-2.97-9.64,1.7h0Z"/></g><g><path d="M733.85,813.66l64.23-7.29c19.7-2.24,41.26-5.39,54.43-19.98"/><path d="M735.18,816.75c23.89-2.71,47.85-5.05,71.68-8.19,18.06-2.38,37.05-6.74,49.96-20.55,3.58-3.83-5.91-6.15-8.63-3.23-12.42,13.3-31.25,16.12-48.47,18.17-22.38,2.66-44.8,5.09-67.19,7.63-1.94,.22-4.17,1.78-3.49,3.94,.72,2.28,4.32,2.44,6.15,2.24h0Z"/></g><g><path d="M727.89,809.72c16.01-.32,31.99-2.16,47.64-5.49"/><path d="M727.89,812.92c16.47-.39,32.84-2.24,48.97-5.6,6.47-1.35,2.56-7.26-2.66-6.17-15.27,3.19-30.71,5-46.31,5.37-6.1,.15-6.17,6.55,0,6.4h0Z"/></g><g><path d="M736.55,803.49c17.06,.66,34.17,.12,51.15-1.62"/><path d="M736.55,806.69c17.53,.63,35.02,0,52.48-1.73,1.94-.19,4.17-1.8,3.49-3.94-.73-2.3-4.31-2.42-6.15-2.24-16.56,1.64-33.19,2.1-49.82,1.5-6.15-.22-6.11,6.18,0,6.4h0Z"/></g><g><path d="M711.41,813.03c14.32,.07,28.64-1.56,42.56-4.85"/><path d="M711.41,816.23c14.79,0,29.48-1.64,43.89-4.97,6.42-1.48,2.55-7.38-2.66-6.17-13.57,3.14-27.31,4.74-41.24,4.74-6.12,0-6.15,6.4,0,6.4h0Z"/></g><g><path d="M703.63,815.22c15.11,1.32,30.45,.03,45.1-3.81"/><path d="M703.63,818.42c15.61,1.25,31.26-.07,46.43-3.93,6.37-1.62,2.54-7.49-2.66-6.17-14.38,3.66-28.98,4.89-43.77,3.7-1.84-.15-5,.97-5,3.2,0,2.44,3.21,3.06,5,3.2h0Z"/></g><g><g><path d="M851.03,653.99c-5.26,22.84-11.63,45.44-19.07,67.68-3.48,10.41-7.6,21.31-16.31,28.12,3.49-17.84,9.34-35.23,17.37-51.59,2.59-5.28,5.45-10.57,6.38-16.36,1.11-6.87-.37-14.64,3.83-20.23-17.74,23.74-35.98,48.62-41.15,77.65l20.29-39.93c1.39-2.73,3.24-5.8,6.32-6.18-5.78,12.55-11.31,25.21-16.58,37.97-3.65,8.84-7.23,17.98-7.31,27.52,6.03-4.67,11.56-9.97,16.47-15.78-6.03,11.01-19.7,15.16-32.07,18.04-10.87,2.53-21.79,4.85-32.75,6.95-6.22,1.2-12.53,2.33-18.86,1.98-15.47-.85-30.36-10.44-45.49-7.15"/><path d="M846.21,653.14c-4.01,17.29-8.6,34.43-13.83,51.39-4.42,14.3-8.13,33-20.27,43.01l8.54,2.26c3.16-15.77,8.14-31.18,14.85-45.8,3.07-6.69,7.05-13.15,8.57-20.43,1.37-6.54-.37-14.53,3.48-20.34,2.99-4.5-6.25-6.42-8.63-3.23-17.99,24.09-36.18,49.08-41.83,79.26-.79,4.21,8.36,3.73,9.82,.85l11.91-23.43,5.73-11.28c.9-1.78,3.28-8.59,5.47-9.15l-6.15-3.94c-5.11,11.12-10.05,22.33-14.77,33.62-4.4,10.52-8.94,21.15-9.29,32.72-.11,3.58,6.5,3.86,8.54,2.26,6.28-4.95,12.04-10.36,17.26-16.43l-9.14-2.47c-4.97,8.47-14.58,12.13-23.62,14.58-11.76,3.17-23.82,5.48-35.77,7.81-6.09,1.18-12.28,2.52-18.52,2.27-5.61-.22-11.08-1.79-16.44-3.33-10.31-2.96-20.55-5.76-31.33-3.74-6.51,1.22-2.56,7.15,2.66,6.17,12.06-2.26,23.79,3.82,35.41,6.15,13.03,2.62,25.81-.29,38.59-2.89,11.81-2.41,23.94-4.56,35.39-8.4,9.44-3.17,18.11-8.13,23.26-16.91,2.33-3.97-7.11-4.83-9.14-2.47-4.76,5.54-9.95,10.61-15.69,15.13l8.54,2.26c.35-11.6,5.24-22.23,9.66-32.75s9.19-21.33,14.04-31.88c1.47-3.2-4.14-4.45-6.15-3.94-8.71,2.23-11.4,11.54-15.1,18.83l-14.99,29.51,9.82,.85c5.4-28.84,23.3-53.04,40.46-76.03l-8.63-3.23c-3.91,5.9-3.6,12.06-4.17,18.86-.72,8.52-5.4,15.83-8.89,23.44-6.96,15.19-11.93,31.13-15.21,47.5-.71,3.56,6.8,3.69,8.54,2.26,12.76-10.52,16.94-27.04,21.71-42.2,5.7-18.14,10.67-36.5,14.96-55.02,1.09-4.7-8.74-5.62-9.64-1.7h0Z"/></g><g><g><g><path d="M894.81,634.26c.98-28.69,5.82-57.24,14.35-84.69,2.58-8.3,5.53-16.66,5.57-25.34,.04-8.68-3.44-17.94-11-22.39-3.6-2.12-7.79-2.99-11.93-3.63-14.22-2.2-29.06-2.03-42.67,2.58-24.31,8.23-41.97,29.76-51.78,53.14-9.81,23.38-12.95,48.85-16.77,73.87-.48,3.12-1.07,6.45-3.31,8.71-2.16,2.17-5.4,2.87-8.46,3.33-16.85,2.54-34.03,.97-51.06,1.8-17.02,.83-34.81,4.5-47.56,15.64-9.56,8.35-15.48,20.6-16.06,33.17-.22,4.77,.37,9.75,2.92,13.82,4.13,6.57,12.52,9.35,20.37,9.7,7.84,.36,15.67-1.2,23.52-1"/><path class="b" d="M904.81,634.26c.82-22.06,3.73-44.02,9.09-65.44,2.68-10.71,6.6-21.11,9.08-31.86,2.09-9.03,2.72-18.59-1.25-27.24-8.69-18.93-34.27-20.27-52.39-19.22-19.95,1.16-38.06,8.04-53.18,21.15-30.16,26.14-38.1,66.67-43.78,104.22-.7,4.65-.97,9.68-2.23,14.22-1.24,4.46-5.5,3.79-9.61,4.18-10.42,.98-20.95,.54-31.4,.6-19.76,.11-40.15,1.93-57.65,11.92-17.34,9.89-30.68,31.13-26.75,51.61,2.03,10.58,10.29,17.18,20.29,20.09,11.96,3.48,23.78,.86,35.94,.97,3.81,.04,9.91-1.82,10-6.5s-6.42-6.47-10-6.5c-13.86-.13-36.88,6.76-36.85-14.42,.02-16.01,9.93-30.9,24.39-37.55,15.64-7.19,33.3-6.65,50.11-6.62,9.73,.02,19.44-.14,29.11-1.27,8.77-1.02,18.85-3.49,21.7-13.05,2.46-8.26,2.87-17.44,4.22-25.94,1.51-9.49,3.19-18.95,5.56-28.27,4.16-16.39,10.29-32.65,20.49-46.3,9.05-12.11,20.77-22.21,35.32-26.92,8.34-2.7,17.32-3.16,26.02-2.59,6.59,.43,15.04,.63,19.42,6.29,5.72,7.39,4.77,17.93,2.56,26.39-2.8,10.72-6.5,21.15-9.09,31.94-5.22,21.69-8.29,43.81-9.12,66.1-.32,8.71,19.67,8.88,20,0h0Z"/></g><g><path d="M655.02,715.44c-11.73,13.36-13.04,34.54-3.03,49.19,2.71,3.97,6.34,7.59,10.98,9.01,3.29,1.01,6.81,.84,10.25,.67,8.86-.46,17.72-.91,26.58-1.37"/><path class="b" d="M646.39,712.16c-11.8,13.98-14.85,34.83-5.91,51.14,4.97,9.06,12.67,15.85,23.19,17.27,11.67,1.57,24.42-.53,36.13-1.13,3.8-.2,9.91-1.67,10-6.5,.09-4.57-6.42-6.68-10-6.5-9.43,.48-18.87,1.18-28.3,1.45-3.19,.09-4.81,.06-7.17-2.06-2.57-2.32-4.42-5.41-5.84-8.54-5.71-12.59-3.76-27.99,5.17-38.57,6.89-8.17-12.02-12.78-17.27-6.56h0Z"/></g><g><path d="M665.71,779.05c-3.64,5.48-9.02,10.06-10.84,16.37-1.66,5.77,.05,12.07,3.23,17.19s7.71,9.26,12.18,13.34"/><path class="b" d="M657.07,775.77c-5.82,8.37-14.09,15.68-12.66,26.88,1.43,11.24,9.23,19.27,17.23,26.58,3.61,3.3,9.12,4.1,13.68,2.33,3.25-1.26,7.21-5.59,3.59-8.89-5.98-5.46-13.21-11.59-14.51-20.08-1.3-8.48,5.56-13.95,9.94-20.25,6.18-8.89-12.62-13.25-17.27-6.56h0Z"/></g></g><g><path d="M895.2,626.11c-1.64,41.46-6.99,82.76-15.94,123.18-2.26,10.19-4.85,20.56-10.53,29.14-11.38,17.19-32.37,23.54-51.81,27.99-48.21,11.03-97.34,17.57-146.64,19.52"/><path class="b" d="M885.2,626.11c-1.01,24.61-3.25,49.16-6.82,73.53-1.74,11.85-3.78,23.66-6.12,35.4-2.18,10.92-4.15,22.24-8.42,32.58-7.48,18.14-24.38,26.21-42.42,30.9-22.78,5.92-46.19,9.99-69.46,13.4-27.09,3.98-54.34,6.5-81.69,7.61-3.75,.15-9.91,1.62-10,6.4s6.48,6.54,10,6.4c51.57-2.11,103.4-8.53,153.59-20.76,19.33-4.71,40.56-11.73,52.65-28.68,6.82-9.56,9.87-20.6,12.38-31.91,2.79-12.57,5.26-25.21,7.38-37.91,4.78-28.77,7.73-57.82,8.92-86.97,.35-8.58-19.64-8.76-20,0h0Z"/></g></g></g></g></g><path d="M936.69,331.91c63.33,149.1,43.38,320.29-52.61,451.19l-12.92-11.9c55.14-75.52,84.91-166.49,84.79-259.75,0-200.02-134.05-369.61-317.59-425.1-2.42-7.21-5.77-14.19-9.92-20.71,138.67,36.96,252.3,135.14,308.25,266.28Z"/><path d="M870.49,832.52l-31.3-29.08c-1.97-1.75-3.72-2.62-5.25-2.4s-3.5,1.42-5.58,3.61c-2.3,2.62-4.05,5.57-5.25,8.85l34.92,32.46-14.78,15.85-47.94-44.6,14.23-15.3,4.16,3.94,.44-.44c.66-7.54,3.94-14.54,9.19-19.89,8.76-9.4,17.51-10.06,26.27-1.97l35.68,33.12-14.78,15.85Z"/></svg>