<?xml version="1.0" encoding="utf-8"?>
<!-- Generator: Adobe Illustrator 26.2.1, SVG Export Plug-In . SVG Version: 6.00 Build 0)  -->
<svg version="1.1" id="레이어_1" xmlns="http://www.w3.org/2000/svg" xmlns:xlink="http://www.w3.org/1999/xlink" x="0px"
	 y="0px" viewBox="0 0 512 512" style="enable-background:new 0 0 512 512;" xml:space="preserve">
<style type="text/css">
	.st0{fill:#B7B7B7;}
</style>
<g>
	<path class="st0" d="M302.3,269.5h-20c0,0,0-53.6,0-53.6c-0.3-11.7-18.7-11.7-19,0v62.2c0.1,4.7,4.1,8.5,8.9,8.4h30.1v0
		C314.2,287.1,314.2,268.9,302.3,269.5z"/>
	<path class="st0" d="M235,216.5c-3.8-11.6-20.9-11.6-24.7,0c0,0-22.2,57.7-22.2,57.7c-3.5,12,0.8,13.6,8.1,14.3
		c8.9,0.9,9.6-10.6,12.3-15.9h28.2c3.8,9.1,4.7,20,18.2,14.7c2.5-1.1,5-4.4,2.2-13C257.1,274.1,235,216.5,235,216.5z M213.4,257.8
		l9.2-26l9.2,26H213.4z"/>
	<path class="st0" d="M200.4,216.2c-0.2-5.1-2.9-8.8-9.1-8.9c-14.5-0.2-32.4-0.2-46.9,0c-6.1,0.1-8.9,3.8-9.1,8.9
		c-0.1,11.9,15.1,8.4,23.3,8.9c0.2,17.7-0.2,36.4,0.1,53.8c0.1,6.2,4.1,7.9,9.1,8.9c4.9-0.5,9.2-3.1,9.3-8.9
		c0.3-17.4-0.1-36.1,0.1-53.8C185.4,224.6,200.4,228.1,200.4,216.2z"/>
	<path class="st0" d="M256,0C114.6,0,0,114.6,0,256s114.6,256,256,256s256-114.6,256-256S397.4,0,256,0z M228.2,367.8
		c-11.7,6.8-63.6,47.1-71.7,44.1c-5.2-2.7,13.4-51.9,14.9-61.3c-138.9-66.3-66-236.6,85.3-231.3C491.9,127.1,449.4,396,228.2,367.8z
		"/>
	<path class="st0" d="M350.6,243.2c0,0,21.7-21.4,21.7-21.4c5.3-5.4-0.2-14.6-7.3-14.5c-4.5-1.7-28.4,26.1-31.8,28.3
		c-1-8.2,4.4-29.8-9.5-29.5c-5.2,0-9.5,4.2-9.5,9.4c0,0,0,64.2,0,64.2c-0.2,12.2,19.2,12.2,19,0v-20.5l3.3-3.3
		c0,0,22.3,29.2,22.3,29.2c4.7,6.7,16.2,3.8,17-4.4l0,0C378.2,275,353,248,350.6,243.2z"/>
</g>
</svg>
