<?xml version="1.0" encoding="utf-8"?>
<!-- Generator: Adobe Illustrator 26.2.1, SVG Export Plug-In . SVG Version: 6.00 Build 0)  -->
<svg version="1.1" id="레이어_1" xmlns="http://www.w3.org/2000/svg" xmlns:xlink="http://www.w3.org/1999/xlink" x="0px"
	 y="0px" viewBox="0 0 512 512" style="enable-background:new 0 0 512 512;" xml:space="preserve">
<style type="text/css">
	.st0{fill-rule:evenodd;clip-rule:evenodd;fill:#B7B7B7;}
</style>
<path class="st0" d="M256,0c141.3,0,256,114.7,256,256S397.3,512,256,512S0,397.3,0,256S114.7,0,256,0z M210.9,392.2
	c113.3,0,175.2-93.9,175.2-175.2c0-2.7,0-5.4-0.1-7.9c12.1-8.7,22.5-19.6,30.8-31.9c-11,4.9-22.9,8.2-35.4,9.7
	c12.8-7.7,22.5-19.7,27.1-34.1c-12.1,7.1-25.3,12.2-39.1,14.9c-11.2-12-27.2-19.4-45-19.4c-34,0-61.6,27.6-61.6,61.6
	c0,4.9,0.5,9.6,1.7,14c-51.2-2.6-96.6-27.1-126.9-64.4c-5.4,9.4-8.3,20.1-8.3,30.9c0,20.6,10.3,39.8,27.5,51.2
	c-10.1-0.3-19.5-3.1-27.8-7.7v0.8c0,29.9,21.2,54.7,49.4,60.4c-5.3,1.4-10.7,2.2-16.2,2.2c-4,0-7.8-0.4-11.6-1.1
	c7.8,24.5,30.5,42.3,57.5,42.8c-21.1,16.5-47.6,26.3-76.5,26.3c-5,0-9.8-0.3-14.7-0.9C143.7,381.9,176.2,392.2,210.9,392.2
	L210.9,392.2z"/>
</svg>
