<?xml version="1.0" ?><svg data-name="Layer 1" id="Layer_1" viewBox="0 0 512 512" xmlns="http://www.w3.org/2000/svg"><title/><path d="M235.178,216.211a10.855,10.855,0,0,0-20.323,0L193.93,272.2a6.971,6.971,0,0,0,13.059,4.88l3.341-10.085h28.046a6.464,6.464,0,0,0,1.284-.129l3.384,10.214A6.97,6.97,0,1,0,256.1,272.2ZM216.5,254.425l9.921-29.945,9.921,29.945Z"/><path d="M202.965,216.239a6.971,6.971,0,0,0-6.97-6.971H153.423a6.971,6.971,0,0,0,0,13.942h14.315v51.427a6.97,6.97,0,1,0,13.94,0V223.21H196A6.971,6.971,0,0,0,202.965,216.239Z"/><path d="M297.1,267.065H277.3V216.239a6.97,6.97,0,1,0-13.94,0v56.37a8.406,8.406,0,0,0,8.4,8.4H297.1a6.97,6.97,0,1,0,0-13.94Z"/><path d="M338.962,241.494,359.6,221.548a6.873,6.873,0,0,0-9.554-9.882L324.311,238.43V216.239a7.363,7.363,0,1,0-14.726,0v58.4a7.363,7.363,0,1,0,14.726,0V255.656l4.723-4.566,20.433,27.487a7.265,7.265,0,0,0,11.456-8.938Z"/><path d="M256,0C114.615,0,0,114.615,0,256S114.615,512,256,512,512,397.385,512,256,397.385,0,256,0Zm0,358.935a185.433,185.433,0,0,1-28.708-2.225l-57.987,40.667a3.674,3.674,0,0,1-5.663-3.941l13.779-52.516c-40.928-20.55-68.088-56.675-68.088-97.814C109.333,179.135,175,127.277,256,127.277s146.667,51.858,146.667,115.829S337,358.935,256,358.935Z"/></svg>