<svg id="레이어_1" data-name="레이어 1" xmlns="http://www.w3.org/2000/svg" viewBox="0 0 512 512"><defs><style>.cls-1{fill-rule:evenodd;}</style></defs><path class="cls-1" d="M511.2,256C511.2,115.15,396.85.81,256,.81h0C115.15.81.8,115.15.8,256S115.15,511.19,256,511.19h0C396.85,511.19,511.2,396.85,511.2,256Zm-229.58,0c0,62.73-50.5,113.59-112.81,113.59S56,318.72,56,256s50.51-113.59,112.81-113.59S281.62,193.27,281.62,256Zm123.76,0c0,59.05-25.25,106.94-56.41,106.94s-56.4-47.89-56.4-106.94S317.82,149.07,349,149.07,405.38,196.94,405.38,256ZM456,256c0,52.89-8.88,95.8-19.84,95.8s-19.83-42.89-19.83-95.8,8.88-95.79,19.83-95.79S456,203.09,456,256Z"/></svg>