<svg id="레이어_1" data-name="레이어 1" xmlns="http://www.w3.org/2000/svg" viewBox="0 0 512 512"><defs><style>.cls-1{fill-rule:evenodd;}</style></defs><path class="cls-1" d="M256,0C397.29,0,512,114.71,512,256S397.29,512,256,512,0,397.29,0,256,114.71,0,256,0ZM210.91,392.16c113.28,0,175.22-93.87,175.22-175.23,0-2.68,0-5.36-.12-7.91a126.38,126.38,0,0,0,30.77-31.93,125,125,0,0,1-35.37,9.7,61.52,61.52,0,0,0,27.07-34.1,124.7,124.7,0,0,1-39.08,14.95,61.61,61.61,0,0,0-106.51,42.14,56.38,56.38,0,0,0,1.66,14.05,174.68,174.68,0,0,1-127-64.37,61.56,61.56,0,0,0,19.16,82.12,60.39,60.39,0,0,1-27.84-7.66v.77a61.66,61.66,0,0,0,49.42,60.41,61.67,61.67,0,0,1-16.22,2.17,59.24,59.24,0,0,1-11.62-1.15A61.48,61.48,0,0,0,208,338.9a123.74,123.74,0,0,1-76.5,26.31,113.61,113.61,0,0,1-14.69-.89,171.63,171.63,0,0,0,94.13,27.84Z"/></svg>