<svg xmlns="http://www.w3.org/2000/svg" width="34" height="34" viewBox="0 0 34 34">
    <g fill="none" fill-rule="evenodd">
        <g>
            <g>
                <path fill="#FFD900" d="M33.966 16.983c0 9.379-7.603 16.98-16.982 16.98C7.606 33.963 0 26.362 0 16.983 0 7.603 7.606 0 16.984 0c9.379 0 16.982 7.604 16.982 16.983" transform="translate(-158 -1796) translate(158 1796)"/>
                <path fill="#1D1D1B" d="M24.275 19.16c-.038.35-.378.377-.482.377-.024 0-.049 0-.074-.004-.179-.018-.279-.13-.464-.38l-1.266-1.727-.346.353v1.298c0 .263-.208.46-.482.46-.288 0-.482-.184-.482-.46v-3.989c0-.274.202-.474.482-.474.288 0 .482.19.482.474v1.545l1.697-1.77c.076-.074.199-.175.383-.175.233.006.467.16.46.444 0 .133-.078.22-.236.394l-.118.132-1.16 1.17 1.372 1.797c.142.185.26.338.234.534zm-4.012-.097c-.006.205-.17.421-.46.421h-1.797c-.316 0-.504-.2-.504-.534v-3.833c0-.31.185-.503.482-.503s.482.192.482.503v3.49h1.336c.144 0 .265.046.347.134.08.084.12.201.114.322zm-3.702.475c-.242 0-.396-.11-.47-.335l-.211-.659h-2.013l-.216.652c-.075.233-.223.342-.464.342-.266 0-.474-.196-.474-.446 0-.098.03-.174.044-.211l1.398-3.705c.101-.272.341-.561.718-.561.33 0 .591.204.717.56l1.356 3.7c.043.115.054.209.054.246 0 .234-.193.417-.44.417zm-3.65-4.88c.28 0 .432.226.432.439 0 .201-.113.437-.432.437H11.9v3.5c0 .31-.185.504-.482.504s-.482-.194-.482-.505v-3.499H9.921c-.318 0-.43-.236-.43-.437 0-.213.15-.44.43-.44h2.99zm1.961.833l.01.007.727 2.192h-1.472l.726-2.192c.003-.01.016-.01.019 0zm2.111-6.523c-5.563 0-10.073 3.564-10.073 7.958 0 2.826 1.865 5.309 4.675 6.72l-.949 3.547c-.035.105-.009.22.069.297.056.056.13.084.204.084.064 0 .126-.02.18-.062l4.084-2.756c.587.084 1.192.129 1.81.129 5.564 0 10.074-3.564 10.074-7.959 0-4.394-4.51-7.958-10.074-7.958z" transform="translate(-158 -1796) translate(158 1796)"/>
            </g>
        </g>
    </g>
</svg>
