<svg xmlns="http://www.w3.org/2000/svg" width="35" height="34" viewBox="0 0 35 34">
    <g fill="none" fill-rule="evenodd">
        <g>
            <g>
                <path fill="#FFD900" d="M34.219 16.984c0 9.379-7.604 16.98-16.983 16.98-9.377 0-16.983-7.601-16.983-16.98C.253 7.604 7.859 0 17.236 0c9.38 0 16.983 7.604 16.983 16.984" transform="translate(-323 -1796) translate(323 1796)"/>
                <path fill="#1D1D1B" fill-rule="nonzero" d="M13.116 8.063L13.116 9.929 10.255 9.928 10.255 12.844 8.389 12.844 8.389 8.063zM26.197 8.09L26.197 12.818 24.332 12.818 24.332 9.955 21.418 9.955 21.418 8.09zM10.255 21.153L10.255 24.068 13.116 24.069 13.116 25.934 8.389 25.934 8.389 21.153zM26.197 21.179L26.197 25.908 21.418 25.908 21.418 24.042 24.332 24.042 24.332 21.179zM26.188 16.05L26.188 17.915 8.284 17.915 8.284 16.05z" transform="translate(-323 -1796) translate(323 1796)"/>
            </g>
        </g>
    </g>
</svg>
